ISO-10303-21;
HEADER;
/* Generated by software containing ST-Developer
 * from STEP Tools, Inc. (www.steptools.com) 
 */

FILE_DESCRIPTION(
/* description */ (''),
/* implementation_level */ '2;1');

FILE_NAME(
/* name */ 'hackpad_assembly.step',
/* time_stamp */ '2026-09-21T16:07:03-06:00',
/* author */ (''),
/* organization */ (''),
/* preprocessor_version */ 'ST-DEVELOPER v20.2',
/* originating_system */ 'Autodesk Translation Framework v15.15.0.0',
/* authorisation */ '');

FILE_SCHEMA (('AUTOMOTIVE_DESIGN { 1 0 10303 214 3 1 1 }'));
ENDSEC;

DATA;
#10=MECHANICAL_DESIGN_GEOMETRIC_PRESENTATION_REPRESENTATION('',(#13,#14),
#1629);
#11=SHAPE_REPRESENTATION_RELATIONSHIP('SRR','None',#1636,#12);
#12=ADVANCED_BREP_SHAPE_REPRESENTATION('',(#15,#16),#1628);
#13=STYLED_ITEM('',(#1645),#15);
#14=STYLED_ITEM('',(#1645),#16);
#15=MANIFOLD_SOLID_BREP('Body1',#1024);
#16=MANIFOLD_SOLID_BREP('Body2',#1025);
#17=CYLINDRICAL_SURFACE('',#1046,1.45);
#18=CYLINDRICAL_SURFACE('',#1049,1.45);
#19=CYLINDRICAL_SURFACE('',#1051,1.45);
#20=CYLINDRICAL_SURFACE('',#1053,1.45);
#21=CYLINDRICAL_SURFACE('',#1078,3.6);
#22=FACE_BOUND('',#108,.T.);
#23=FACE_BOUND('',#109,.T.);
#24=FACE_BOUND('',#110,.T.);
#25=FACE_BOUND('',#111,.T.);
#26=FACE_BOUND('',#112,.T.);
#27=FACE_BOUND('',#126,.T.);
#28=FACE_BOUND('',#133,.T.);
#29=FACE_BOUND('',#137,.T.);
#30=FACE_BOUND('',#139,.T.);
#31=FACE_BOUND('',#140,.T.);
#32=FACE_BOUND('',#141,.T.);
#33=FACE_BOUND('',#142,.T.);
#34=FACE_BOUND('',#144,.T.);
#35=FACE_BOUND('',#145,.T.);
#36=FACE_BOUND('',#146,.T.);
#37=FACE_BOUND('',#147,.T.);
#38=FACE_BOUND('',#148,.T.);
#39=FACE_BOUND('',#149,.T.);
#40=FACE_BOUND('',#176,.T.);
#41=FACE_BOUND('',#177,.T.);
#42=FACE_BOUND('',#178,.T.);
#43=FACE_BOUND('',#179,.T.);
#44=FACE_BOUND('',#180,.T.);
#45=FACE_BOUND('',#181,.T.);
#46=CIRCLE('',#1040,1.45);
#47=CIRCLE('',#1041,1.45);
#48=CIRCLE('',#1042,1.45);
#49=CIRCLE('',#1043,1.45);
#50=CIRCLE('',#1047,1.45);
#51=CIRCLE('',#1050,1.45);
#52=CIRCLE('',#1052,1.45);
#53=CIRCLE('',#1054,1.45);
#54=CIRCLE('',#1072,3.6);
#55=CIRCLE('',#1079,3.6);
#56=FACE_OUTER_BOUND('',#107,.T.);
#57=FACE_OUTER_BOUND('',#113,.T.);
#58=FACE_OUTER_BOUND('',#114,.T.);
#59=FACE_OUTER_BOUND('',#115,.T.);
#60=FACE_OUTER_BOUND('',#116,.T.);
#61=FACE_OUTER_BOUND('',#117,.T.);
#62=FACE_OUTER_BOUND('',#118,.T.);
#63=FACE_OUTER_BOUND('',#119,.T.);
#64=FACE_OUTER_BOUND('',#120,.T.);
#65=FACE_OUTER_BOUND('',#121,.T.);
#66=FACE_OUTER_BOUND('',#122,.T.);
#67=FACE_OUTER_BOUND('',#123,.T.);
#68=FACE_OUTER_BOUND('',#124,.T.);
#69=FACE_OUTER_BOUND('',#125,.T.);
#70=FACE_OUTER_BOUND('',#127,.T.);
#71=FACE_OUTER_BOUND('',#128,.T.);
#72=FACE_OUTER_BOUND('',#129,.T.);
#73=FACE_OUTER_BOUND('',#130,.T.);
#74=FACE_OUTER_BOUND('',#131,.T.);
#75=FACE_OUTER_BOUND('',#132,.T.);
#76=FACE_OUTER_BOUND('',#134,.T.);
#77=FACE_OUTER_BOUND('',#135,.T.);
#78=FACE_OUTER_BOUND('',#136,.T.);
#79=FACE_OUTER_BOUND('',#138,.T.);
#80=FACE_OUTER_BOUND('',#143,.T.);
#81=FACE_OUTER_BOUND('',#150,.T.);
#82=FACE_OUTER_BOUND('',#151,.T.);
#83=FACE_OUTER_BOUND('',#152,.T.);
#84=FACE_OUTER_BOUND('',#153,.T.);
#85=FACE_OUTER_BOUND('',#154,.T.);
#86=FACE_OUTER_BOUND('',#155,.T.);
#87=FACE_OUTER_BOUND('',#156,.T.);
#88=FACE_OUTER_BOUND('',#157,.T.);
#89=FACE_OUTER_BOUND('',#158,.T.);
#90=FACE_OUTER_BOUND('',#159,.T.);
#91=FACE_OUTER_BOUND('',#160,.T.);
#92=FACE_OUTER_BOUND('',#161,.T.);
#93=FACE_OUTER_BOUND('',#162,.T.);
#94=FACE_OUTER_BOUND('',#163,.T.);
#95=FACE_OUTER_BOUND('',#164,.T.);
#96=FACE_OUTER_BOUND('',#165,.T.);
#97=FACE_OUTER_BOUND('',#166,.T.);
#98=FACE_OUTER_BOUND('',#167,.T.);
#99=FACE_OUTER_BOUND('',#168,.T.);
#100=FACE_OUTER_BOUND('',#169,.T.);
#101=FACE_OUTER_BOUND('',#170,.T.);
#102=FACE_OUTER_BOUND('',#171,.T.);
#103=FACE_OUTER_BOUND('',#172,.T.);
#104=FACE_OUTER_BOUND('',#173,.T.);
#105=FACE_OUTER_BOUND('',#174,.T.);
#106=FACE_OUTER_BOUND('',#175,.T.);
#107=EDGE_LOOP('',(#657,#658,#659,#660));
#108=EDGE_LOOP('',(#661));
#109=EDGE_LOOP('',(#662));
#110=EDGE_LOOP('',(#663));
#111=EDGE_LOOP('',(#664,#665,#666,#667));
#112=EDGE_LOOP('',(#668));
#113=EDGE_LOOP('',(#669,#670,#671,#672));
#114=EDGE_LOOP('',(#673,#674,#675,#676));
#115=EDGE_LOOP('',(#677,#678,#679,#680));
#116=EDGE_LOOP('',(#681,#682,#683,#684));
#117=EDGE_LOOP('',(#685,#686,#687,#688));
#118=EDGE_LOOP('',(#689,#690,#691,#692));
#119=EDGE_LOOP('',(#693,#694,#695,#696));
#120=EDGE_LOOP('',(#697,#698,#699,#700));
#121=EDGE_LOOP('',(#701,#702,#703,#704));
#122=EDGE_LOOP('',(#705,#706,#707,#708));
#123=EDGE_LOOP('',(#709,#710,#711,#712));
#124=EDGE_LOOP('',(#713,#714,#715,#716));
#125=EDGE_LOOP('',(#717,#718,#719,#720));
#126=EDGE_LOOP('',(#721,#722,#723,#724));
#127=EDGE_LOOP('',(#725,#726,#727,#728));
#128=EDGE_LOOP('',(#729,#730,#731,#732));
#129=EDGE_LOOP('',(#733,#734,#735,#736));
#130=EDGE_LOOP('',(#737,#738,#739,#740));
#131=EDGE_LOOP('',(#741,#742,#743,#744));
#132=EDGE_LOOP('',(#745,#746,#747,#748));
#133=EDGE_LOOP('',(#749,#750,#751,#752));
#134=EDGE_LOOP('',(#753,#754,#755,#756));
#135=EDGE_LOOP('',(#757,#758,#759,#760));
#136=EDGE_LOOP('',(#761,#762,#763,#764));
#137=EDGE_LOOP('',(#765,#766,#767,#768));
#138=EDGE_LOOP('',(#769,#770,#771,#772));
#139=EDGE_LOOP('',(#773));
#140=EDGE_LOOP('',(#774));
#141=EDGE_LOOP('',(#775));
#142=EDGE_LOOP('',(#776));
#143=EDGE_LOOP('',(#777,#778,#779,#780));
#144=EDGE_LOOP('',(#781,#782,#783,#784));
#145=EDGE_LOOP('',(#785,#786,#787,#788));
#146=EDGE_LOOP('',(#789,#790,#791,#792));
#147=EDGE_LOOP('',(#793,#794,#795,#796));
#148=EDGE_LOOP('',(#797));
#149=EDGE_LOOP('',(#798,#799,#800,#801));
#150=EDGE_LOOP('',(#802,#803,#804,#805));
#151=EDGE_LOOP('',(#806,#807,#808,#809));
#152=EDGE_LOOP('',(#810,#811,#812,#813));
#153=EDGE_LOOP('',(#814,#815,#816,#817));
#154=EDGE_LOOP('',(#818,#819,#820,#821));
#155=EDGE_LOOP('',(#822,#823,#824,#825));
#156=EDGE_LOOP('',(#826,#827,#828,#829));
#157=EDGE_LOOP('',(#830,#831,#832,#833));
#158=EDGE_LOOP('',(#834,#835,#836,#837));
#159=EDGE_LOOP('',(#838,#839,#840,#841));
#160=EDGE_LOOP('',(#842,#843,#844,#845));
#161=EDGE_LOOP('',(#846,#847,#848,#849));
#162=EDGE_LOOP('',(#850,#851,#852,#853));
#163=EDGE_LOOP('',(#854,#855,#856,#857));
#164=EDGE_LOOP('',(#858,#859,#860,#861));
#165=EDGE_LOOP('',(#862,#863,#864,#865));
#166=EDGE_LOOP('',(#866,#867,#868,#869));
#167=EDGE_LOOP('',(#870,#871,#872,#873));
#168=EDGE_LOOP('',(#874,#875,#876,#877));
#169=EDGE_LOOP('',(#878,#879,#880,#881));
#170=EDGE_LOOP('',(#882,#883,#884,#885));
#171=EDGE_LOOP('',(#886,#887,#888,#889));
#172=EDGE_LOOP('',(#890,#891,#892,#893));
#173=EDGE_LOOP('',(#894,#895,#896,#897));
#174=EDGE_LOOP('',(#898,#899,#900,#901));
#175=EDGE_LOOP('',(#902,#903,#904,#905));
#176=EDGE_LOOP('',(#906,#907,#908,#909));
#177=EDGE_LOOP('',(#910,#911,#912,#913));
#178=EDGE_LOOP('',(#914,#915,#916,#917));
#179=EDGE_LOOP('',(#918,#919,#920,#921));
#180=EDGE_LOOP('',(#922,#923,#924,#925));
#181=EDGE_LOOP('',(#926));
#182=LINE('',#1353,#307);
#183=LINE('',#1355,#308);
#184=LINE('',#1357,#309);
#185=LINE('',#1358,#310);
#186=LINE('',#1367,#311);
#187=LINE('',#1369,#312);
#188=LINE('',#1371,#313);
#189=LINE('',#1372,#314);
#190=LINE('',#1378,#315);
#191=LINE('',#1380,#316);
#192=LINE('',#1382,#317);
#193=LINE('',#1383,#318);
#194=LINE('',#1386,#319);
#195=LINE('',#1388,#320);
#196=LINE('',#1389,#321);
#197=LINE('',#1392,#322);
#198=LINE('',#1397,#323);
#199=LINE('',#1398,#324);
#200=LINE('',#1399,#325);
#201=LINE('',#1402,#326);
#202=LINE('',#1406,#327);
#203=LINE('',#1410,#328);
#204=LINE('',#1415,#329);
#205=LINE('',#1417,#330);
#206=LINE('',#1419,#331);
#207=LINE('',#1420,#332);
#208=LINE('',#1423,#333);
#209=LINE('',#1425,#334);
#210=LINE('',#1426,#335);
#211=LINE('',#1429,#336);
#212=LINE('',#1431,#337);
#213=LINE('',#1432,#338);
#214=LINE('',#1434,#339);
#215=LINE('',#1435,#340);
#216=LINE('',#1438,#341);
#217=LINE('',#1440,#342);
#218=LINE('',#1441,#343);
#219=LINE('',#1444,#344);
#220=LINE('',#1446,#345);
#221=LINE('',#1447,#346);
#222=LINE('',#1449,#347);
#223=LINE('',#1450,#348);
#224=LINE('',#1454,#349);
#225=LINE('',#1456,#350);
#226=LINE('',#1457,#351);
#227=LINE('',#1459,#352);
#228=LINE('',#1461,#353);
#229=LINE('',#1465,#354);
#230=LINE('',#1466,#355);
#231=LINE('',#1469,#356);
#232=LINE('',#1470,#357);
#233=LINE('',#1472,#358);
#234=LINE('',#1477,#359);
#235=LINE('',#1479,#360);
#236=LINE('',#1481,#361);
#237=LINE('',#1482,#362);
#238=LINE('',#1485,#363);
#239=LINE('',#1487,#364);
#240=LINE('',#1489,#365);
#241=LINE('',#1490,#366);
#242=LINE('',#1493,#367);
#243=LINE('',#1495,#368);
#244=LINE('',#1497,#369);
#245=LINE('',#1498,#370);
#246=LINE('',#1501,#371);
#247=LINE('',#1503,#372);
#248=LINE('',#1505,#373);
#249=LINE('',#1506,#374);
#250=LINE('',#1509,#375);
#251=LINE('',#1511,#376);
#252=LINE('',#1513,#377);
#253=LINE('',#1514,#378);
#254=LINE('',#1519,#379);
#255=LINE('',#1521,#380);
#256=LINE('',#1523,#381);
#257=LINE('',#1524,#382);
#258=LINE('',#1527,#383);
#259=LINE('',#1529,#384);
#260=LINE('',#1530,#385);
#261=LINE('',#1533,#386);
#262=LINE('',#1535,#387);
#263=LINE('',#1536,#388);
#264=LINE('',#1539,#389);
#265=LINE('',#1540,#390);
#266=LINE('',#1543,#391);
#267=LINE('',#1544,#392);
#268=LINE('',#1546,#393);
#269=LINE('',#1550,#394);
#270=LINE('',#1553,#395);
#271=LINE('',#1555,#396);
#272=LINE('',#1556,#397);
#273=LINE('',#1559,#398);
#274=LINE('',#1560,#399);
#275=LINE('',#1563,#400);
#276=LINE('',#1564,#401);
#277=LINE('',#1566,#402);
#278=LINE('',#1569,#403);
#279=LINE('',#1571,#404);
#280=LINE('',#1572,#405);
#281=LINE('',#1575,#406);
#282=LINE('',#1576,#407);
#283=LINE('',#1579,#408);
#284=LINE('',#1580,#409);
#285=LINE('',#1582,#410);
#286=LINE('',#1585,#411);
#287=LINE('',#1587,#412);
#288=LINE('',#1588,#413);
#289=LINE('',#1591,#414);
#290=LINE('',#1592,#415);
#291=LINE('',#1595,#416);
#292=LINE('',#1596,#417);
#293=LINE('',#1598,#418);
#294=LINE('',#1601,#419);
#295=LINE('',#1603,#420);
#296=LINE('',#1604,#421);
#297=LINE('',#1607,#422);
#298=LINE('',#1608,#423);
#299=LINE('',#1611,#424);
#300=LINE('',#1612,#425);
#301=LINE('',#1614,#426);
#302=LINE('',#1617,#427);
#303=LINE('',#1618,#428);
#304=LINE('',#1621,#429);
#305=LINE('',#1622,#430);
#306=LINE('',#1624,#431);
#307=VECTOR('',#1104,10.);
#308=VECTOR('',#1105,10.);
#309=VECTOR('',#1106,10.);
#310=VECTOR('',#1107,10.);
#311=VECTOR('',#1114,10.);
#312=VECTOR('',#1115,10.);
#313=VECTOR('',#1116,10.);
#314=VECTOR('',#1117,10.);
#315=VECTOR('',#1122,10.);
#316=VECTOR('',#1123,10.);
#317=VECTOR('',#1124,10.);
#318=VECTOR('',#1125,10.);
#319=VECTOR('',#1128,10.);
#320=VECTOR('',#1129,10.);
#321=VECTOR('',#1130,10.);
#322=VECTOR('',#1133,1.45);
#323=VECTOR('',#1138,10.);
#324=VECTOR('',#1139,10.);
#325=VECTOR('',#1140,10.);
#326=VECTOR('',#1143,1.45);
#327=VECTOR('',#1148,1.45);
#328=VECTOR('',#1153,1.45);
#329=VECTOR('',#1158,10.);
#330=VECTOR('',#1159,10.);
#331=VECTOR('',#1160,10.);
#332=VECTOR('',#1161,10.);
#333=VECTOR('',#1164,10.);
#334=VECTOR('',#1165,10.);
#335=VECTOR('',#1166,10.);
#336=VECTOR('',#1169,10.);
#337=VECTOR('',#1170,10.);
#338=VECTOR('',#1171,10.);
#339=VECTOR('',#1174,10.);
#340=VECTOR('',#1175,10.);
#341=VECTOR('',#1178,10.);
#342=VECTOR('',#1179,10.);
#343=VECTOR('',#1180,10.);
#344=VECTOR('',#1183,10.);
#345=VECTOR('',#1184,10.);
#346=VECTOR('',#1185,10.);
#347=VECTOR('',#1188,10.);
#348=VECTOR('',#1189,10.);
#349=VECTOR('',#1194,10.);
#350=VECTOR('',#1195,10.);
#351=VECTOR('',#1196,10.);
#352=VECTOR('',#1199,10.);
#353=VECTOR('',#1202,10.);
#354=VECTOR('',#1207,10.);
#355=VECTOR('',#1208,10.);
#356=VECTOR('',#1211,10.);
#357=VECTOR('',#1212,10.);
#358=VECTOR('',#1215,10.);
#359=VECTOR('',#1220,10.);
#360=VECTOR('',#1221,10.);
#361=VECTOR('',#1222,10.);
#362=VECTOR('',#1223,10.);
#363=VECTOR('',#1224,10.);
#364=VECTOR('',#1225,10.);
#365=VECTOR('',#1226,10.);
#366=VECTOR('',#1227,10.);
#367=VECTOR('',#1228,10.);
#368=VECTOR('',#1229,10.);
#369=VECTOR('',#1230,10.);
#370=VECTOR('',#1231,10.);
#371=VECTOR('',#1232,10.);
#372=VECTOR('',#1233,10.);
#373=VECTOR('',#1234,10.);
#374=VECTOR('',#1235,10.);
#375=VECTOR('',#1236,10.);
#376=VECTOR('',#1237,10.);
#377=VECTOR('',#1238,10.);
#378=VECTOR('',#1239,10.);
#379=VECTOR('',#1242,10.);
#380=VECTOR('',#1243,10.);
#381=VECTOR('',#1244,10.);
#382=VECTOR('',#1245,10.);
#383=VECTOR('',#1248,10.);
#384=VECTOR('',#1249,10.);
#385=VECTOR('',#1250,10.);
#386=VECTOR('',#1253,10.);
#387=VECTOR('',#1254,10.);
#388=VECTOR('',#1255,10.);
#389=VECTOR('',#1258,10.);
#390=VECTOR('',#1259,10.);
#391=VECTOR('',#1262,10.);
#392=VECTOR('',#1263,10.);
#393=VECTOR('',#1266,10.);
#394=VECTOR('',#1271,3.6);
#395=VECTOR('',#1274,10.);
#396=VECTOR('',#1275,10.);
#397=VECTOR('',#1276,10.);
#398=VECTOR('',#1279,10.);
#399=VECTOR('',#1280,10.);
#400=VECTOR('',#1283,10.);
#401=VECTOR('',#1284,10.);
#402=VECTOR('',#1287,10.);
#403=VECTOR('',#1290,10.);
#404=VECTOR('',#1291,10.);
#405=VECTOR('',#1292,10.);
#406=VECTOR('',#1295,10.);
#407=VECTOR('',#1296,10.);
#408=VECTOR('',#1299,10.);
#409=VECTOR('',#1300,10.);
#410=VECTOR('',#1303,10.);
#411=VECTOR('',#1306,10.);
#412=VECTOR('',#1307,10.);
#413=VECTOR('',#1308,10.);
#414=VECTOR('',#1311,10.);
#415=VECTOR('',#1312,10.);
#416=VECTOR('',#1315,10.);
#417=VECTOR('',#1316,10.);
#418=VECTOR('',#1319,10.);
#419=VECTOR('',#1322,10.);
#420=VECTOR('',#1323,10.);
#421=VECTOR('',#1324,10.);
#422=VECTOR('',#1327,10.);
#423=VECTOR('',#1328,10.);
#424=VECTOR('',#1331,10.);
#425=VECTOR('',#1332,10.);
#426=VECTOR('',#1335,10.);
#427=VECTOR('',#1338,10.);
#428=VECTOR('',#1339,10.);
#429=VECTOR('',#1342,10.);
#430=VECTOR('',#1343,10.);
#431=VECTOR('',#1346,10.);
#432=VERTEX_POINT('',#1351);
#433=VERTEX_POINT('',#1352);
#434=VERTEX_POINT('',#1354);
#435=VERTEX_POINT('',#1356);
#436=VERTEX_POINT('',#1359);
#437=VERTEX_POINT('',#1361);
#438=VERTEX_POINT('',#1363);
#439=VERTEX_POINT('',#1365);
#440=VERTEX_POINT('',#1366);
#441=VERTEX_POINT('',#1368);
#442=VERTEX_POINT('',#1370);
#443=VERTEX_POINT('',#1373);
#444=VERTEX_POINT('',#1376);
#445=VERTEX_POINT('',#1377);
#446=VERTEX_POINT('',#1379);
#447=VERTEX_POINT('',#1381);
#448=VERTEX_POINT('',#1385);
#449=VERTEX_POINT('',#1387);
#450=VERTEX_POINT('',#1391);
#451=VERTEX_POINT('',#1395);
#452=VERTEX_POINT('',#1396);
#453=VERTEX_POINT('',#1401);
#454=VERTEX_POINT('',#1405);
#455=VERTEX_POINT('',#1409);
#456=VERTEX_POINT('',#1413);
#457=VERTEX_POINT('',#1414);
#458=VERTEX_POINT('',#1416);
#459=VERTEX_POINT('',#1418);
#460=VERTEX_POINT('',#1422);
#461=VERTEX_POINT('',#1424);
#462=VERTEX_POINT('',#1428);
#463=VERTEX_POINT('',#1430);
#464=VERTEX_POINT('',#1437);
#465=VERTEX_POINT('',#1439);
#466=VERTEX_POINT('',#1443);
#467=VERTEX_POINT('',#1445);
#468=VERTEX_POINT('',#1453);
#469=VERTEX_POINT('',#1455);
#470=VERTEX_POINT('',#1464);
#471=VERTEX_POINT('',#1468);
#472=VERTEX_POINT('',#1475);
#473=VERTEX_POINT('',#1476);
#474=VERTEX_POINT('',#1478);
#475=VERTEX_POINT('',#1480);
#476=VERTEX_POINT('',#1483);
#477=VERTEX_POINT('',#1484);
#478=VERTEX_POINT('',#1486);
#479=VERTEX_POINT('',#1488);
#480=VERTEX_POINT('',#1491);
#481=VERTEX_POINT('',#1492);
#482=VERTEX_POINT('',#1494);
#483=VERTEX_POINT('',#1496);
#484=VERTEX_POINT('',#1499);
#485=VERTEX_POINT('',#1500);
#486=VERTEX_POINT('',#1502);
#487=VERTEX_POINT('',#1504);
#488=VERTEX_POINT('',#1507);
#489=VERTEX_POINT('',#1508);
#490=VERTEX_POINT('',#1510);
#491=VERTEX_POINT('',#1512);
#492=VERTEX_POINT('',#1515);
#493=VERTEX_POINT('',#1517);
#494=VERTEX_POINT('',#1518);
#495=VERTEX_POINT('',#1520);
#496=VERTEX_POINT('',#1522);
#497=VERTEX_POINT('',#1526);
#498=VERTEX_POINT('',#1528);
#499=VERTEX_POINT('',#1532);
#500=VERTEX_POINT('',#1534);
#501=VERTEX_POINT('',#1538);
#502=VERTEX_POINT('',#1542);
#503=VERTEX_POINT('',#1548);
#504=VERTEX_POINT('',#1552);
#505=VERTEX_POINT('',#1554);
#506=VERTEX_POINT('',#1558);
#507=VERTEX_POINT('',#1562);
#508=VERTEX_POINT('',#1568);
#509=VERTEX_POINT('',#1570);
#510=VERTEX_POINT('',#1574);
#511=VERTEX_POINT('',#1578);
#512=VERTEX_POINT('',#1584);
#513=VERTEX_POINT('',#1586);
#514=VERTEX_POINT('',#1590);
#515=VERTEX_POINT('',#1594);
#516=VERTEX_POINT('',#1600);
#517=VERTEX_POINT('',#1602);
#518=VERTEX_POINT('',#1606);
#519=VERTEX_POINT('',#1610);
#520=VERTEX_POINT('',#1616);
#521=VERTEX_POINT('',#1620);
#522=EDGE_CURVE('',#432,#433,#182,.T.);
#523=EDGE_CURVE('',#433,#434,#183,.T.);
#524=EDGE_CURVE('',#435,#434,#184,.T.);
#525=EDGE_CURVE('',#432,#435,#185,.T.);
#526=EDGE_CURVE('',#436,#436,#46,.T.);
#527=EDGE_CURVE('',#437,#437,#47,.T.);
#528=EDGE_CURVE('',#438,#438,#48,.T.);
#529=EDGE_CURVE('',#439,#440,#186,.T.);
#530=EDGE_CURVE('',#440,#441,#187,.T.);
#531=EDGE_CURVE('',#441,#442,#188,.T.);
#532=EDGE_CURVE('',#442,#439,#189,.T.);
#533=EDGE_CURVE('',#443,#443,#49,.T.);
#534=EDGE_CURVE('',#444,#445,#190,.T.);
#535=EDGE_CURVE('',#446,#444,#191,.T.);
#536=EDGE_CURVE('',#447,#446,#192,.T.);
#537=EDGE_CURVE('',#445,#447,#193,.T.);
#538=EDGE_CURVE('',#448,#439,#194,.T.);
#539=EDGE_CURVE('',#449,#448,#195,.T.);
#540=EDGE_CURVE('',#440,#449,#196,.T.);
#541=EDGE_CURVE('',#443,#450,#197,.T.);
#542=EDGE_CURVE('',#450,#450,#50,.T.);
#543=EDGE_CURVE('',#451,#452,#198,.T.);
#544=EDGE_CURVE('',#452,#435,#199,.T.);
#545=EDGE_CURVE('',#434,#451,#200,.T.);
#546=EDGE_CURVE('',#436,#453,#201,.T.);
#547=EDGE_CURVE('',#453,#453,#51,.T.);
#548=EDGE_CURVE('',#437,#454,#202,.T.);
#549=EDGE_CURVE('',#454,#454,#52,.T.);
#550=EDGE_CURVE('',#438,#455,#203,.T.);
#551=EDGE_CURVE('',#455,#455,#53,.T.);
#552=EDGE_CURVE('',#456,#457,#204,.T.);
#553=EDGE_CURVE('',#458,#456,#205,.T.);
#554=EDGE_CURVE('',#459,#458,#206,.T.);
#555=EDGE_CURVE('',#459,#457,#207,.T.);
#556=EDGE_CURVE('',#457,#460,#208,.T.);
#557=EDGE_CURVE('',#461,#459,#209,.T.);
#558=EDGE_CURVE('',#461,#460,#210,.T.);
#559=EDGE_CURVE('',#460,#462,#211,.T.);
#560=EDGE_CURVE('',#463,#461,#212,.T.);
#561=EDGE_CURVE('',#463,#462,#213,.T.);
#562=EDGE_CURVE('',#462,#456,#214,.T.);
#563=EDGE_CURVE('',#458,#463,#215,.T.);
#564=EDGE_CURVE('',#464,#444,#216,.T.);
#565=EDGE_CURVE('',#464,#465,#217,.T.);
#566=EDGE_CURVE('',#465,#446,#218,.T.);
#567=EDGE_CURVE('',#466,#464,#219,.T.);
#568=EDGE_CURVE('',#466,#467,#220,.T.);
#569=EDGE_CURVE('',#467,#465,#221,.T.);
#570=EDGE_CURVE('',#445,#466,#222,.T.);
#571=EDGE_CURVE('',#447,#467,#223,.T.);
#572=EDGE_CURVE('',#441,#468,#224,.T.);
#573=EDGE_CURVE('',#468,#469,#225,.T.);
#574=EDGE_CURVE('',#442,#469,#226,.T.);
#575=EDGE_CURVE('',#449,#468,#227,.T.);
#576=EDGE_CURVE('',#469,#448,#228,.T.);
#577=EDGE_CURVE('',#470,#452,#229,.T.);
#578=EDGE_CURVE('',#470,#432,#230,.T.);
#579=EDGE_CURVE('',#471,#451,#231,.T.);
#580=EDGE_CURVE('',#471,#433,#232,.T.);
#581=EDGE_CURVE('',#470,#471,#233,.T.);
#582=EDGE_CURVE('',#472,#473,#234,.T.);
#583=EDGE_CURVE('',#473,#474,#235,.T.);
#584=EDGE_CURVE('',#474,#475,#236,.T.);
#585=EDGE_CURVE('',#475,#472,#237,.T.);
#586=EDGE_CURVE('',#476,#477,#238,.T.);
#587=EDGE_CURVE('',#478,#476,#239,.T.);
#588=EDGE_CURVE('',#479,#478,#240,.T.);
#589=EDGE_CURVE('',#477,#479,#241,.T.);
#590=EDGE_CURVE('',#480,#481,#242,.T.);
#591=EDGE_CURVE('',#482,#480,#243,.T.);
#592=EDGE_CURVE('',#483,#482,#244,.T.);
#593=EDGE_CURVE('',#481,#483,#245,.T.);
#594=EDGE_CURVE('',#484,#485,#246,.T.);
#595=EDGE_CURVE('',#486,#484,#247,.T.);
#596=EDGE_CURVE('',#487,#486,#248,.T.);
#597=EDGE_CURVE('',#485,#487,#249,.T.);
#598=EDGE_CURVE('',#488,#489,#250,.T.);
#599=EDGE_CURVE('',#490,#488,#251,.T.);
#600=EDGE_CURVE('',#491,#490,#252,.T.);
#601=EDGE_CURVE('',#489,#491,#253,.T.);
#602=EDGE_CURVE('',#492,#492,#54,.T.);
#603=EDGE_CURVE('',#493,#494,#254,.T.);
#604=EDGE_CURVE('',#494,#495,#255,.T.);
#605=EDGE_CURVE('',#496,#495,#256,.T.);
#606=EDGE_CURVE('',#496,#493,#257,.T.);
#607=EDGE_CURVE('',#494,#497,#258,.T.);
#608=EDGE_CURVE('',#498,#497,#259,.T.);
#609=EDGE_CURVE('',#495,#498,#260,.T.);
#610=EDGE_CURVE('',#475,#499,#261,.T.);
#611=EDGE_CURVE('',#499,#500,#262,.T.);
#612=EDGE_CURVE('',#500,#472,#263,.T.);
#613=EDGE_CURVE('',#501,#498,#264,.T.);
#614=EDGE_CURVE('',#501,#496,#265,.T.);
#615=EDGE_CURVE('',#502,#501,#266,.T.);
#616=EDGE_CURVE('',#502,#493,#267,.T.);
#617=EDGE_CURVE('',#502,#497,#268,.T.);
#618=EDGE_CURVE('',#503,#503,#55,.T.);
#619=EDGE_CURVE('',#503,#492,#269,.T.);
#620=EDGE_CURVE('',#488,#504,#270,.T.);
#621=EDGE_CURVE('',#505,#504,#271,.T.);
#622=EDGE_CURVE('',#490,#505,#272,.T.);
#623=EDGE_CURVE('',#506,#505,#273,.T.);
#624=EDGE_CURVE('',#491,#506,#274,.T.);
#625=EDGE_CURVE('',#507,#506,#275,.T.);
#626=EDGE_CURVE('',#489,#507,#276,.T.);
#627=EDGE_CURVE('',#504,#507,#277,.T.);
#628=EDGE_CURVE('',#484,#508,#278,.T.);
#629=EDGE_CURVE('',#509,#508,#279,.T.);
#630=EDGE_CURVE('',#486,#509,#280,.T.);
#631=EDGE_CURVE('',#510,#509,#281,.T.);
#632=EDGE_CURVE('',#487,#510,#282,.T.);
#633=EDGE_CURVE('',#511,#510,#283,.T.);
#634=EDGE_CURVE('',#485,#511,#284,.T.);
#635=EDGE_CURVE('',#508,#511,#285,.T.);
#636=EDGE_CURVE('',#480,#512,#286,.T.);
#637=EDGE_CURVE('',#513,#512,#287,.T.);
#638=EDGE_CURVE('',#482,#513,#288,.T.);
#639=EDGE_CURVE('',#514,#513,#289,.T.);
#640=EDGE_CURVE('',#483,#514,#290,.T.);
#641=EDGE_CURVE('',#515,#514,#291,.T.);
#642=EDGE_CURVE('',#481,#515,#292,.T.);
#643=EDGE_CURVE('',#512,#515,#293,.T.);
#644=EDGE_CURVE('',#476,#516,#294,.T.);
#645=EDGE_CURVE('',#517,#516,#295,.T.);
#646=EDGE_CURVE('',#478,#517,#296,.T.);
#647=EDGE_CURVE('',#518,#517,#297,.T.);
#648=EDGE_CURVE('',#479,#518,#298,.T.);
#649=EDGE_CURVE('',#519,#518,#299,.T.);
#650=EDGE_CURVE('',#477,#519,#300,.T.);
#651=EDGE_CURVE('',#516,#519,#301,.T.);
#652=EDGE_CURVE('',#474,#520,#302,.T.);
#653=EDGE_CURVE('',#520,#499,#303,.T.);
#654=EDGE_CURVE('',#521,#500,#304,.T.);
#655=EDGE_CURVE('',#473,#521,#305,.T.);
#656=EDGE_CURVE('',#520,#521,#306,.T.);
#657=ORIENTED_EDGE('',*,*,#522,.T.);
#658=ORIENTED_EDGE('',*,*,#523,.T.);
#659=ORIENTED_EDGE('',*,*,#524,.F.);
#660=ORIENTED_EDGE('',*,*,#525,.F.);
#661=ORIENTED_EDGE('',*,*,#526,.T.);
#662=ORIENTED_EDGE('',*,*,#527,.T.);
#663=ORIENTED_EDGE('',*,*,#528,.T.);
#664=ORIENTED_EDGE('',*,*,#529,.T.);
#665=ORIENTED_EDGE('',*,*,#530,.T.);
#666=ORIENTED_EDGE('',*,*,#531,.T.);
#667=ORIENTED_EDGE('',*,*,#532,.T.);
#668=ORIENTED_EDGE('',*,*,#533,.T.);
#669=ORIENTED_EDGE('',*,*,#534,.F.);
#670=ORIENTED_EDGE('',*,*,#535,.F.);
#671=ORIENTED_EDGE('',*,*,#536,.F.);
#672=ORIENTED_EDGE('',*,*,#537,.F.);
#673=ORIENTED_EDGE('',*,*,#529,.F.);
#674=ORIENTED_EDGE('',*,*,#538,.F.);
#675=ORIENTED_EDGE('',*,*,#539,.F.);
#676=ORIENTED_EDGE('',*,*,#540,.F.);
#677=ORIENTED_EDGE('',*,*,#533,.F.);
#678=ORIENTED_EDGE('',*,*,#541,.T.);
#679=ORIENTED_EDGE('',*,*,#542,.F.);
#680=ORIENTED_EDGE('',*,*,#541,.F.);
#681=ORIENTED_EDGE('',*,*,#543,.T.);
#682=ORIENTED_EDGE('',*,*,#544,.T.);
#683=ORIENTED_EDGE('',*,*,#524,.T.);
#684=ORIENTED_EDGE('',*,*,#545,.T.);
#685=ORIENTED_EDGE('',*,*,#526,.F.);
#686=ORIENTED_EDGE('',*,*,#546,.T.);
#687=ORIENTED_EDGE('',*,*,#547,.F.);
#688=ORIENTED_EDGE('',*,*,#546,.F.);
#689=ORIENTED_EDGE('',*,*,#527,.F.);
#690=ORIENTED_EDGE('',*,*,#548,.T.);
#691=ORIENTED_EDGE('',*,*,#549,.F.);
#692=ORIENTED_EDGE('',*,*,#548,.F.);
#693=ORIENTED_EDGE('',*,*,#528,.F.);
#694=ORIENTED_EDGE('',*,*,#550,.T.);
#695=ORIENTED_EDGE('',*,*,#551,.F.);
#696=ORIENTED_EDGE('',*,*,#550,.F.);
#697=ORIENTED_EDGE('',*,*,#552,.F.);
#698=ORIENTED_EDGE('',*,*,#553,.F.);
#699=ORIENTED_EDGE('',*,*,#554,.F.);
#700=ORIENTED_EDGE('',*,*,#555,.T.);
#701=ORIENTED_EDGE('',*,*,#556,.F.);
#702=ORIENTED_EDGE('',*,*,#555,.F.);
#703=ORIENTED_EDGE('',*,*,#557,.F.);
#704=ORIENTED_EDGE('',*,*,#558,.T.);
#705=ORIENTED_EDGE('',*,*,#559,.F.);
#706=ORIENTED_EDGE('',*,*,#558,.F.);
#707=ORIENTED_EDGE('',*,*,#560,.F.);
#708=ORIENTED_EDGE('',*,*,#561,.T.);
#709=ORIENTED_EDGE('',*,*,#562,.F.);
#710=ORIENTED_EDGE('',*,*,#561,.F.);
#711=ORIENTED_EDGE('',*,*,#563,.F.);
#712=ORIENTED_EDGE('',*,*,#553,.T.);
#713=ORIENTED_EDGE('',*,*,#564,.F.);
#714=ORIENTED_EDGE('',*,*,#565,.T.);
#715=ORIENTED_EDGE('',*,*,#566,.T.);
#716=ORIENTED_EDGE('',*,*,#535,.T.);
#717=ORIENTED_EDGE('',*,*,#567,.F.);
#718=ORIENTED_EDGE('',*,*,#568,.T.);
#719=ORIENTED_EDGE('',*,*,#569,.T.);
#720=ORIENTED_EDGE('',*,*,#565,.F.);
#721=ORIENTED_EDGE('',*,*,#559,.T.);
#722=ORIENTED_EDGE('',*,*,#562,.T.);
#723=ORIENTED_EDGE('',*,*,#552,.T.);
#724=ORIENTED_EDGE('',*,*,#556,.T.);
#725=ORIENTED_EDGE('',*,*,#570,.F.);
#726=ORIENTED_EDGE('',*,*,#537,.T.);
#727=ORIENTED_EDGE('',*,*,#571,.T.);
#728=ORIENTED_EDGE('',*,*,#568,.F.);
#729=ORIENTED_EDGE('',*,*,#571,.F.);
#730=ORIENTED_EDGE('',*,*,#536,.T.);
#731=ORIENTED_EDGE('',*,*,#566,.F.);
#732=ORIENTED_EDGE('',*,*,#569,.F.);
#733=ORIENTED_EDGE('',*,*,#531,.F.);
#734=ORIENTED_EDGE('',*,*,#572,.T.);
#735=ORIENTED_EDGE('',*,*,#573,.T.);
#736=ORIENTED_EDGE('',*,*,#574,.F.);
#737=ORIENTED_EDGE('',*,*,#540,.T.);
#738=ORIENTED_EDGE('',*,*,#575,.T.);
#739=ORIENTED_EDGE('',*,*,#572,.F.);
#740=ORIENTED_EDGE('',*,*,#530,.F.);
#741=ORIENTED_EDGE('',*,*,#538,.T.);
#742=ORIENTED_EDGE('',*,*,#532,.F.);
#743=ORIENTED_EDGE('',*,*,#574,.T.);
#744=ORIENTED_EDGE('',*,*,#576,.T.);
#745=ORIENTED_EDGE('',*,*,#539,.T.);
#746=ORIENTED_EDGE('',*,*,#576,.F.);
#747=ORIENTED_EDGE('',*,*,#573,.F.);
#748=ORIENTED_EDGE('',*,*,#575,.F.);
#749=ORIENTED_EDGE('',*,*,#570,.T.);
#750=ORIENTED_EDGE('',*,*,#567,.T.);
#751=ORIENTED_EDGE('',*,*,#564,.T.);
#752=ORIENTED_EDGE('',*,*,#534,.T.);
#753=ORIENTED_EDGE('',*,*,#577,.F.);
#754=ORIENTED_EDGE('',*,*,#578,.T.);
#755=ORIENTED_EDGE('',*,*,#525,.T.);
#756=ORIENTED_EDGE('',*,*,#544,.F.);
#757=ORIENTED_EDGE('',*,*,#579,.T.);
#758=ORIENTED_EDGE('',*,*,#545,.F.);
#759=ORIENTED_EDGE('',*,*,#523,.F.);
#760=ORIENTED_EDGE('',*,*,#580,.F.);
#761=ORIENTED_EDGE('',*,*,#581,.T.);
#762=ORIENTED_EDGE('',*,*,#580,.T.);
#763=ORIENTED_EDGE('',*,*,#522,.F.);
#764=ORIENTED_EDGE('',*,*,#578,.F.);
#765=ORIENTED_EDGE('',*,*,#560,.T.);
#766=ORIENTED_EDGE('',*,*,#557,.T.);
#767=ORIENTED_EDGE('',*,*,#554,.T.);
#768=ORIENTED_EDGE('',*,*,#563,.T.);
#769=ORIENTED_EDGE('',*,*,#581,.F.);
#770=ORIENTED_EDGE('',*,*,#577,.T.);
#771=ORIENTED_EDGE('',*,*,#543,.F.);
#772=ORIENTED_EDGE('',*,*,#579,.F.);
#773=ORIENTED_EDGE('',*,*,#542,.T.);
#774=ORIENTED_EDGE('',*,*,#547,.T.);
#775=ORIENTED_EDGE('',*,*,#549,.T.);
#776=ORIENTED_EDGE('',*,*,#551,.T.);
#777=ORIENTED_EDGE('',*,*,#582,.T.);
#778=ORIENTED_EDGE('',*,*,#583,.T.);
#779=ORIENTED_EDGE('',*,*,#584,.T.);
#780=ORIENTED_EDGE('',*,*,#585,.T.);
#781=ORIENTED_EDGE('',*,*,#586,.F.);
#782=ORIENTED_EDGE('',*,*,#587,.F.);
#783=ORIENTED_EDGE('',*,*,#588,.F.);
#784=ORIENTED_EDGE('',*,*,#589,.F.);
#785=ORIENTED_EDGE('',*,*,#590,.F.);
#786=ORIENTED_EDGE('',*,*,#591,.F.);
#787=ORIENTED_EDGE('',*,*,#592,.F.);
#788=ORIENTED_EDGE('',*,*,#593,.F.);
#789=ORIENTED_EDGE('',*,*,#594,.F.);
#790=ORIENTED_EDGE('',*,*,#595,.F.);
#791=ORIENTED_EDGE('',*,*,#596,.F.);
#792=ORIENTED_EDGE('',*,*,#597,.F.);
#793=ORIENTED_EDGE('',*,*,#598,.F.);
#794=ORIENTED_EDGE('',*,*,#599,.F.);
#795=ORIENTED_EDGE('',*,*,#600,.F.);
#796=ORIENTED_EDGE('',*,*,#601,.F.);
#797=ORIENTED_EDGE('',*,*,#602,.F.);
#798=ORIENTED_EDGE('',*,*,#603,.T.);
#799=ORIENTED_EDGE('',*,*,#604,.T.);
#800=ORIENTED_EDGE('',*,*,#605,.F.);
#801=ORIENTED_EDGE('',*,*,#606,.T.);
#802=ORIENTED_EDGE('',*,*,#607,.T.);
#803=ORIENTED_EDGE('',*,*,#608,.F.);
#804=ORIENTED_EDGE('',*,*,#609,.F.);
#805=ORIENTED_EDGE('',*,*,#604,.F.);
#806=ORIENTED_EDGE('',*,*,#585,.F.);
#807=ORIENTED_EDGE('',*,*,#610,.T.);
#808=ORIENTED_EDGE('',*,*,#611,.T.);
#809=ORIENTED_EDGE('',*,*,#612,.T.);
#810=ORIENTED_EDGE('',*,*,#609,.T.);
#811=ORIENTED_EDGE('',*,*,#613,.F.);
#812=ORIENTED_EDGE('',*,*,#614,.T.);
#813=ORIENTED_EDGE('',*,*,#605,.T.);
#814=ORIENTED_EDGE('',*,*,#615,.F.);
#815=ORIENTED_EDGE('',*,*,#616,.T.);
#816=ORIENTED_EDGE('',*,*,#606,.F.);
#817=ORIENTED_EDGE('',*,*,#614,.F.);
#818=ORIENTED_EDGE('',*,*,#603,.F.);
#819=ORIENTED_EDGE('',*,*,#616,.F.);
#820=ORIENTED_EDGE('',*,*,#617,.T.);
#821=ORIENTED_EDGE('',*,*,#607,.F.);
#822=ORIENTED_EDGE('',*,*,#618,.F.);
#823=ORIENTED_EDGE('',*,*,#619,.T.);
#824=ORIENTED_EDGE('',*,*,#602,.T.);
#825=ORIENTED_EDGE('',*,*,#619,.F.);
#826=ORIENTED_EDGE('',*,*,#599,.T.);
#827=ORIENTED_EDGE('',*,*,#620,.T.);
#828=ORIENTED_EDGE('',*,*,#621,.F.);
#829=ORIENTED_EDGE('',*,*,#622,.F.);
#830=ORIENTED_EDGE('',*,*,#600,.T.);
#831=ORIENTED_EDGE('',*,*,#622,.T.);
#832=ORIENTED_EDGE('',*,*,#623,.F.);
#833=ORIENTED_EDGE('',*,*,#624,.F.);
#834=ORIENTED_EDGE('',*,*,#601,.T.);
#835=ORIENTED_EDGE('',*,*,#624,.T.);
#836=ORIENTED_EDGE('',*,*,#625,.F.);
#837=ORIENTED_EDGE('',*,*,#626,.F.);
#838=ORIENTED_EDGE('',*,*,#598,.T.);
#839=ORIENTED_EDGE('',*,*,#626,.T.);
#840=ORIENTED_EDGE('',*,*,#627,.F.);
#841=ORIENTED_EDGE('',*,*,#620,.F.);
#842=ORIENTED_EDGE('',*,*,#595,.T.);
#843=ORIENTED_EDGE('',*,*,#628,.T.);
#844=ORIENTED_EDGE('',*,*,#629,.F.);
#845=ORIENTED_EDGE('',*,*,#630,.F.);
#846=ORIENTED_EDGE('',*,*,#596,.T.);
#847=ORIENTED_EDGE('',*,*,#630,.T.);
#848=ORIENTED_EDGE('',*,*,#631,.F.);
#849=ORIENTED_EDGE('',*,*,#632,.F.);
#850=ORIENTED_EDGE('',*,*,#597,.T.);
#851=ORIENTED_EDGE('',*,*,#632,.T.);
#852=ORIENTED_EDGE('',*,*,#633,.F.);
#853=ORIENTED_EDGE('',*,*,#634,.F.);
#854=ORIENTED_EDGE('',*,*,#594,.T.);
#855=ORIENTED_EDGE('',*,*,#634,.T.);
#856=ORIENTED_EDGE('',*,*,#635,.F.);
#857=ORIENTED_EDGE('',*,*,#628,.F.);
#858=ORIENTED_EDGE('',*,*,#591,.T.);
#859=ORIENTED_EDGE('',*,*,#636,.T.);
#860=ORIENTED_EDGE('',*,*,#637,.F.);
#861=ORIENTED_EDGE('',*,*,#638,.F.);
#862=ORIENTED_EDGE('',*,*,#592,.T.);
#863=ORIENTED_EDGE('',*,*,#638,.T.);
#864=ORIENTED_EDGE('',*,*,#639,.F.);
#865=ORIENTED_EDGE('',*,*,#640,.F.);
#866=ORIENTED_EDGE('',*,*,#593,.T.);
#867=ORIENTED_EDGE('',*,*,#640,.T.);
#868=ORIENTED_EDGE('',*,*,#641,.F.);
#869=ORIENTED_EDGE('',*,*,#642,.F.);
#870=ORIENTED_EDGE('',*,*,#590,.T.);
#871=ORIENTED_EDGE('',*,*,#642,.T.);
#872=ORIENTED_EDGE('',*,*,#643,.F.);
#873=ORIENTED_EDGE('',*,*,#636,.F.);
#874=ORIENTED_EDGE('',*,*,#587,.T.);
#875=ORIENTED_EDGE('',*,*,#644,.T.);
#876=ORIENTED_EDGE('',*,*,#645,.F.);
#877=ORIENTED_EDGE('',*,*,#646,.F.);
#878=ORIENTED_EDGE('',*,*,#588,.T.);
#879=ORIENTED_EDGE('',*,*,#646,.T.);
#880=ORIENTED_EDGE('',*,*,#647,.F.);
#881=ORIENTED_EDGE('',*,*,#648,.F.);
#882=ORIENTED_EDGE('',*,*,#589,.T.);
#883=ORIENTED_EDGE('',*,*,#648,.T.);
#884=ORIENTED_EDGE('',*,*,#649,.F.);
#885=ORIENTED_EDGE('',*,*,#650,.F.);
#886=ORIENTED_EDGE('',*,*,#586,.T.);
#887=ORIENTED_EDGE('',*,*,#650,.T.);
#888=ORIENTED_EDGE('',*,*,#651,.F.);
#889=ORIENTED_EDGE('',*,*,#644,.F.);
#890=ORIENTED_EDGE('',*,*,#584,.F.);
#891=ORIENTED_EDGE('',*,*,#652,.T.);
#892=ORIENTED_EDGE('',*,*,#653,.T.);
#893=ORIENTED_EDGE('',*,*,#610,.F.);
#894=ORIENTED_EDGE('',*,*,#582,.F.);
#895=ORIENTED_EDGE('',*,*,#612,.F.);
#896=ORIENTED_EDGE('',*,*,#654,.F.);
#897=ORIENTED_EDGE('',*,*,#655,.F.);
#898=ORIENTED_EDGE('',*,*,#583,.F.);
#899=ORIENTED_EDGE('',*,*,#655,.T.);
#900=ORIENTED_EDGE('',*,*,#656,.F.);
#901=ORIENTED_EDGE('',*,*,#652,.F.);
#902=ORIENTED_EDGE('',*,*,#654,.T.);
#903=ORIENTED_EDGE('',*,*,#611,.F.);
#904=ORIENTED_EDGE('',*,*,#653,.F.);
#905=ORIENTED_EDGE('',*,*,#656,.T.);
#906=ORIENTED_EDGE('',*,*,#617,.F.);
#907=ORIENTED_EDGE('',*,*,#615,.T.);
#908=ORIENTED_EDGE('',*,*,#613,.T.);
#909=ORIENTED_EDGE('',*,*,#608,.T.);
#910=ORIENTED_EDGE('',*,*,#651,.T.);
#911=ORIENTED_EDGE('',*,*,#649,.T.);
#912=ORIENTED_EDGE('',*,*,#647,.T.);
#913=ORIENTED_EDGE('',*,*,#645,.T.);
#914=ORIENTED_EDGE('',*,*,#643,.T.);
#915=ORIENTED_EDGE('',*,*,#641,.T.);
#916=ORIENTED_EDGE('',*,*,#639,.T.);
#917=ORIENTED_EDGE('',*,*,#637,.T.);
#918=ORIENTED_EDGE('',*,*,#635,.T.);
#919=ORIENTED_EDGE('',*,*,#633,.T.);
#920=ORIENTED_EDGE('',*,*,#631,.T.);
#921=ORIENTED_EDGE('',*,*,#629,.T.);
#922=ORIENTED_EDGE('',*,*,#627,.T.);
#923=ORIENTED_EDGE('',*,*,#625,.T.);
#924=ORIENTED_EDGE('',*,*,#623,.T.);
#925=ORIENTED_EDGE('',*,*,#621,.T.);
#926=ORIENTED_EDGE('',*,*,#618,.T.);
#927=PLANE('',#1039);
#928=PLANE('',#1044);
#929=PLANE('',#1045);
#930=PLANE('',#1048);
#931=PLANE('',#1055);
#932=PLANE('',#1056);
#933=PLANE('',#1057);
#934=PLANE('',#1058);
#935=PLANE('',#1059);
#936=PLANE('',#1060);
#937=PLANE('',#1061);
#938=PLANE('',#1062);
#939=PLANE('',#1063);
#940=PLANE('',#1064);
#941=PLANE('',#1065);
#942=PLANE('',#1066);
#943=PLANE('',#1067);
#944=PLANE('',#1068);
#945=PLANE('',#1069);
#946=PLANE('',#1070);
#947=PLANE('',#1071);
#948=PLANE('',#1073);
#949=PLANE('',#1074);
#950=PLANE('',#1075);
#951=PLANE('',#1076);
#952=PLANE('',#1077);
#953=PLANE('',#1080);
#954=PLANE('',#1081);
#955=PLANE('',#1082);
#956=PLANE('',#1083);
#957=PLANE('',#1084);
#958=PLANE('',#1085);
#959=PLANE('',#1086);
#960=PLANE('',#1087);
#961=PLANE('',#1088);
#962=PLANE('',#1089);
#963=PLANE('',#1090);
#964=PLANE('',#1091);
#965=PLANE('',#1092);
#966=PLANE('',#1093);
#967=PLANE('',#1094);
#968=PLANE('',#1095);
#969=PLANE('',#1096);
#970=PLANE('',#1097);
#971=PLANE('',#1098);
#972=PLANE('',#1099);
#973=ADVANCED_FACE('',(#56,#22,#23,#24,#25,#26),#927,.T.);
#974=ADVANCED_FACE('',(#57),#928,.F.);
#975=ADVANCED_FACE('',(#58),#929,.F.);
#976=ADVANCED_FACE('',(#59),#17,.F.);
#977=ADVANCED_FACE('',(#60),#930,.T.);
#978=ADVANCED_FACE('',(#61),#18,.F.);
#979=ADVANCED_FACE('',(#62),#19,.F.);
#980=ADVANCED_FACE('',(#63),#20,.F.);
#981=ADVANCED_FACE('',(#64),#931,.F.);
#982=ADVANCED_FACE('',(#65),#932,.F.);
#983=ADVANCED_FACE('',(#66),#933,.F.);
#984=ADVANCED_FACE('',(#67),#934,.F.);
#985=ADVANCED_FACE('',(#68),#935,.F.);
#986=ADVANCED_FACE('',(#69,#27),#936,.F.);
#987=ADVANCED_FACE('',(#70),#937,.F.);
#988=ADVANCED_FACE('',(#71),#938,.F.);
#989=ADVANCED_FACE('',(#72),#939,.F.);
#990=ADVANCED_FACE('',(#73),#940,.F.);
#991=ADVANCED_FACE('',(#74),#941,.F.);
#992=ADVANCED_FACE('',(#75,#28),#942,.F.);
#993=ADVANCED_FACE('',(#76),#943,.T.);
#994=ADVANCED_FACE('',(#77),#944,.T.);
#995=ADVANCED_FACE('',(#78,#29),#945,.T.);
#996=ADVANCED_FACE('',(#79,#30,#31,#32,#33),#946,.F.);
#997=ADVANCED_FACE('',(#80,#34,#35,#36,#37,#38,#39),#947,.F.);
#998=ADVANCED_FACE('',(#81),#948,.F.);
#999=ADVANCED_FACE('',(#82),#949,.T.);
#1000=ADVANCED_FACE('',(#83),#950,.F.);
#1001=ADVANCED_FACE('',(#84),#951,.F.);
#1002=ADVANCED_FACE('',(#85),#952,.F.);
#1003=ADVANCED_FACE('',(#86),#21,.F.);
#1004=ADVANCED_FACE('',(#87),#953,.T.);
#1005=ADVANCED_FACE('',(#88),#954,.T.);
#1006=ADVANCED_FACE('',(#89),#955,.T.);
#1007=ADVANCED_FACE('',(#90),#956,.T.);
#1008=ADVANCED_FACE('',(#91),#957,.T.);
#1009=ADVANCED_FACE('',(#92),#958,.T.);
#1010=ADVANCED_FACE('',(#93),#959,.T.);
#1011=ADVANCED_FACE('',(#94),#960,.T.);
#1012=ADVANCED_FACE('',(#95),#961,.T.);
#1013=ADVANCED_FACE('',(#96),#962,.T.);
#1014=ADVANCED_FACE('',(#97),#963,.T.);
#1015=ADVANCED_FACE('',(#98),#964,.T.);
#1016=ADVANCED_FACE('',(#99),#965,.T.);
#1017=ADVANCED_FACE('',(#100),#966,.T.);
#1018=ADVANCED_FACE('',(#101),#967,.T.);
#1019=ADVANCED_FACE('',(#102),#968,.T.);
#1020=ADVANCED_FACE('',(#103),#969,.T.);
#1021=ADVANCED_FACE('',(#104),#970,.T.);
#1022=ADVANCED_FACE('',(#105),#971,.T.);
#1023=ADVANCED_FACE('',(#106,#40,#41,#42,#43,#44,#45),#972,.T.);
#1024=CLOSED_SHELL('',(#973,#974,#975,#976,#977,#978,#979,#980,#981,#982,
#983,#984,#985,#986,#987,#988,#989,#990,#991,#992,#993,#994,#995,#996));
#1025=CLOSED_SHELL('',(#997,#998,#999,#1000,#1001,#1002,#1003,#1004,#1005,
#1006,#1007,#1008,#1009,#1010,#1011,#1012,#1013,#1014,#1015,#1016,#1017,
#1018,#1019,#1020,#1021,#1022,#1023));
#1026=DERIVED_UNIT_ELEMENT(#1028,1.);
#1027=DERIVED_UNIT_ELEMENT(#1631,-3.);
#1028=(
MASS_UNIT()
NAMED_UNIT(*)
SI_UNIT(.KILO.,.GRAM.)
);
#1029=DERIVED_UNIT((#1026,#1027));
#1030=MEASURE_REPRESENTATION_ITEM('density measure',
POSITIVE_RATIO_MEASURE(7850.),#1029);
#1031=PROPERTY_DEFINITION_REPRESENTATION(#1036,#1033);
#1032=PROPERTY_DEFINITION_REPRESENTATION(#1037,#1034);
#1033=REPRESENTATION('material name',(#1035),#1628);
#1034=REPRESENTATION('density',(#1030),#1628);
#1035=DESCRIPTIVE_REPRESENTATION_ITEM('Steel','Steel');
#1036=PROPERTY_DEFINITION('material property','material name',#1638);
#1037=PROPERTY_DEFINITION('material property','density of part',#1638);
#1038=AXIS2_PLACEMENT_3D('',#1349,#1100,#1101);
#1039=AXIS2_PLACEMENT_3D('',#1350,#1102,#1103);
#1040=AXIS2_PLACEMENT_3D('',#1360,#1108,#1109);
#1041=AXIS2_PLACEMENT_3D('',#1362,#1110,#1111);
#1042=AXIS2_PLACEMENT_3D('',#1364,#1112,#1113);
#1043=AXIS2_PLACEMENT_3D('',#1374,#1118,#1119);
#1044=AXIS2_PLACEMENT_3D('',#1375,#1120,#1121);
#1045=AXIS2_PLACEMENT_3D('',#1384,#1126,#1127);
#1046=AXIS2_PLACEMENT_3D('',#1390,#1131,#1132);
#1047=AXIS2_PLACEMENT_3D('',#1393,#1134,#1135);
#1048=AXIS2_PLACEMENT_3D('',#1394,#1136,#1137);
#1049=AXIS2_PLACEMENT_3D('',#1400,#1141,#1142);
#1050=AXIS2_PLACEMENT_3D('',#1403,#1144,#1145);
#1051=AXIS2_PLACEMENT_3D('',#1404,#1146,#1147);
#1052=AXIS2_PLACEMENT_3D('',#1407,#1149,#1150);
#1053=AXIS2_PLACEMENT_3D('',#1408,#1151,#1152);
#1054=AXIS2_PLACEMENT_3D('',#1411,#1154,#1155);
#1055=AXIS2_PLACEMENT_3D('',#1412,#1156,#1157);
#1056=AXIS2_PLACEMENT_3D('',#1421,#1162,#1163);
#1057=AXIS2_PLACEMENT_3D('',#1427,#1167,#1168);
#1058=AXIS2_PLACEMENT_3D('',#1433,#1172,#1173);
#1059=AXIS2_PLACEMENT_3D('',#1436,#1176,#1177);
#1060=AXIS2_PLACEMENT_3D('',#1442,#1181,#1182);
#1061=AXIS2_PLACEMENT_3D('',#1448,#1186,#1187);
#1062=AXIS2_PLACEMENT_3D('',#1451,#1190,#1191);
#1063=AXIS2_PLACEMENT_3D('',#1452,#1192,#1193);
#1064=AXIS2_PLACEMENT_3D('',#1458,#1197,#1198);
#1065=AXIS2_PLACEMENT_3D('',#1460,#1200,#1201);
#1066=AXIS2_PLACEMENT_3D('',#1462,#1203,#1204);
#1067=AXIS2_PLACEMENT_3D('',#1463,#1205,#1206);
#1068=AXIS2_PLACEMENT_3D('',#1467,#1209,#1210);
#1069=AXIS2_PLACEMENT_3D('',#1471,#1213,#1214);
#1070=AXIS2_PLACEMENT_3D('',#1473,#1216,#1217);
#1071=AXIS2_PLACEMENT_3D('',#1474,#1218,#1219);
#1072=AXIS2_PLACEMENT_3D('',#1516,#1240,#1241);
#1073=AXIS2_PLACEMENT_3D('',#1525,#1246,#1247);
#1074=AXIS2_PLACEMENT_3D('',#1531,#1251,#1252);
#1075=AXIS2_PLACEMENT_3D('',#1537,#1256,#1257);
#1076=AXIS2_PLACEMENT_3D('',#1541,#1260,#1261);
#1077=AXIS2_PLACEMENT_3D('',#1545,#1264,#1265);
#1078=AXIS2_PLACEMENT_3D('',#1547,#1267,#1268);
#1079=AXIS2_PLACEMENT_3D('',#1549,#1269,#1270);
#1080=AXIS2_PLACEMENT_3D('',#1551,#1272,#1273);
#1081=AXIS2_PLACEMENT_3D('',#1557,#1277,#1278);
#1082=AXIS2_PLACEMENT_3D('',#1561,#1281,#1282);
#1083=AXIS2_PLACEMENT_3D('',#1565,#1285,#1286);
#1084=AXIS2_PLACEMENT_3D('',#1567,#1288,#1289);
#1085=AXIS2_PLACEMENT_3D('',#1573,#1293,#1294);
#1086=AXIS2_PLACEMENT_3D('',#1577,#1297,#1298);
#1087=AXIS2_PLACEMENT_3D('',#1581,#1301,#1302);
#1088=AXIS2_PLACEMENT_3D('',#1583,#1304,#1305);
#1089=AXIS2_PLACEMENT_3D('',#1589,#1309,#1310);
#1090=AXIS2_PLACEMENT_3D('',#1593,#1313,#1314);
#1091=AXIS2_PLACEMENT_3D('',#1597,#1317,#1318);
#1092=AXIS2_PLACEMENT_3D('',#1599,#1320,#1321);
#1093=AXIS2_PLACEMENT_3D('',#1605,#1325,#1326);
#1094=AXIS2_PLACEMENT_3D('',#1609,#1329,#1330);
#1095=AXIS2_PLACEMENT_3D('',#1613,#1333,#1334);
#1096=AXIS2_PLACEMENT_3D('',#1615,#1336,#1337);
#1097=AXIS2_PLACEMENT_3D('',#1619,#1340,#1341);
#1098=AXIS2_PLACEMENT_3D('',#1623,#1344,#1345);
#1099=AXIS2_PLACEMENT_3D('',#1625,#1347,#1348);
#1100=DIRECTION('axis',(0.,0.,1.));
#1101=DIRECTION('refdir',(1.,0.,0.));
#1102=DIRECTION('center_axis',(0.,0.,1.));
#1103=DIRECTION('ref_axis',(1.,0.,0.));
#1104=DIRECTION('',(0.,-1.,0.));
#1105=DIRECTION('',(1.,0.,0.));
#1106=DIRECTION('',(0.,-1.,0.));
#1107=DIRECTION('',(1.,0.,0.));
#1108=DIRECTION('center_axis',(0.,0.,-1.));
#1109=DIRECTION('ref_axis',(-1.,0.,0.));
#1110=DIRECTION('center_axis',(0.,0.,-1.));
#1111=DIRECTION('ref_axis',(-1.,0.,0.));
#1112=DIRECTION('center_axis',(0.,0.,-1.));
#1113=DIRECTION('ref_axis',(-1.,0.,0.));
#1114=DIRECTION('',(0.,-1.,0.));
#1115=DIRECTION('',(-1.,0.,0.));
#1116=DIRECTION('',(0.,1.,0.));
#1117=DIRECTION('',(1.,0.,0.));
#1118=DIRECTION('center_axis',(0.,0.,-1.));
#1119=DIRECTION('ref_axis',(-1.,0.,0.));
#1120=DIRECTION('center_axis',(1.,0.,0.));
#1121=DIRECTION('ref_axis',(0.,0.,-1.));
#1122=DIRECTION('',(0.,-1.,0.));
#1123=DIRECTION('',(0.,0.,1.));
#1124=DIRECTION('',(0.,1.,0.));
#1125=DIRECTION('',(0.,0.,-1.));
#1126=DIRECTION('center_axis',(1.,0.,0.));
#1127=DIRECTION('ref_axis',(0.,0.,-1.));
#1128=DIRECTION('',(0.,0.,1.));
#1129=DIRECTION('',(0.,1.,0.));
#1130=DIRECTION('',(0.,0.,-1.));
#1131=DIRECTION('center_axis',(0.,0.,-1.));
#1132=DIRECTION('ref_axis',(-1.,0.,0.));
#1133=DIRECTION('',(0.,0.,-1.));
#1134=DIRECTION('center_axis',(0.,0.,1.));
#1135=DIRECTION('ref_axis',(-1.,0.,0.));
#1136=DIRECTION('center_axis',(1.,0.,0.));
#1137=DIRECTION('ref_axis',(0.,0.,-1.));
#1138=DIRECTION('',(0.,1.,0.));
#1139=DIRECTION('',(0.,0.,1.));
#1140=DIRECTION('',(0.,0.,-1.));
#1141=DIRECTION('center_axis',(0.,0.,-1.));
#1142=DIRECTION('ref_axis',(-1.,0.,0.));
#1143=DIRECTION('',(0.,0.,-1.));
#1144=DIRECTION('center_axis',(0.,0.,1.));
#1145=DIRECTION('ref_axis',(-1.,0.,0.));
#1146=DIRECTION('center_axis',(0.,0.,-1.));
#1147=DIRECTION('ref_axis',(-1.,0.,0.));
#1148=DIRECTION('',(0.,0.,-1.));
#1149=DIRECTION('center_axis',(0.,0.,1.));
#1150=DIRECTION('ref_axis',(-1.,0.,0.));
#1151=DIRECTION('center_axis',(0.,0.,-1.));
#1152=DIRECTION('ref_axis',(-1.,0.,0.));
#1153=DIRECTION('',(0.,0.,-1.));
#1154=DIRECTION('center_axis',(0.,0.,1.));
#1155=DIRECTION('ref_axis',(-1.,0.,0.));
#1156=DIRECTION('center_axis',(0.,1.,0.));
#1157=DIRECTION('ref_axis',(0.,0.,1.));
#1158=DIRECTION('',(0.,0.,-1.));
#1159=DIRECTION('',(1.,0.,0.));
#1160=DIRECTION('',(0.,0.,1.));
#1161=DIRECTION('',(1.,0.,0.));
#1162=DIRECTION('center_axis',(0.,0.,-1.));
#1163=DIRECTION('ref_axis',(0.,1.,0.));
#1164=DIRECTION('',(0.,-1.,0.));
#1165=DIRECTION('',(0.,1.,0.));
#1166=DIRECTION('',(1.,0.,0.));
#1167=DIRECTION('center_axis',(0.,-1.,0.));
#1168=DIRECTION('ref_axis',(0.,0.,-1.));
#1169=DIRECTION('',(0.,0.,1.));
#1170=DIRECTION('',(0.,0.,-1.));
#1171=DIRECTION('',(1.,0.,0.));
#1172=DIRECTION('center_axis',(0.,0.,1.));
#1173=DIRECTION('ref_axis',(0.,-1.,0.));
#1174=DIRECTION('',(0.,1.,0.));
#1175=DIRECTION('',(0.,-1.,0.));
#1176=DIRECTION('center_axis',(0.,1.,0.));
#1177=DIRECTION('ref_axis',(1.,0.,0.));
#1178=DIRECTION('',(1.,0.,0.));
#1179=DIRECTION('',(0.,0.,-1.));
#1180=DIRECTION('',(1.,0.,0.));
#1181=DIRECTION('center_axis',(-1.,0.,0.));
#1182=DIRECTION('ref_axis',(0.,1.,0.));
#1183=DIRECTION('',(0.,1.,0.));
#1184=DIRECTION('',(0.,0.,-1.));
#1185=DIRECTION('',(0.,1.,0.));
#1186=DIRECTION('center_axis',(0.,-1.,0.));
#1187=DIRECTION('ref_axis',(-1.,0.,0.));
#1188=DIRECTION('',(-1.,0.,0.));
#1189=DIRECTION('',(-1.,0.,0.));
#1190=DIRECTION('center_axis',(0.,0.,-1.));
#1191=DIRECTION('ref_axis',(-1.,0.,0.));
#1192=DIRECTION('center_axis',(-1.,0.,0.));
#1193=DIRECTION('ref_axis',(0.,1.,0.));
#1194=DIRECTION('',(0.,0.,-1.));
#1195=DIRECTION('',(0.,1.,0.));
#1196=DIRECTION('',(0.,0.,-1.));
#1197=DIRECTION('center_axis',(0.,-1.,0.));
#1198=DIRECTION('ref_axis',(-1.,0.,0.));
#1199=DIRECTION('',(-1.,0.,0.));
#1200=DIRECTION('center_axis',(0.,1.,0.));
#1201=DIRECTION('ref_axis',(1.,0.,0.));
#1202=DIRECTION('',(1.,0.,0.));
#1203=DIRECTION('center_axis',(0.,0.,-1.));
#1204=DIRECTION('ref_axis',(-1.,0.,0.));
#1205=DIRECTION('center_axis',(0.,1.,0.));
#1206=DIRECTION('ref_axis',(-1.,0.,0.));
#1207=DIRECTION('',(1.,0.,0.));
#1208=DIRECTION('',(0.,0.,1.));
#1209=DIRECTION('center_axis',(0.,-1.,0.));
#1210=DIRECTION('ref_axis',(1.,0.,0.));
#1211=DIRECTION('',(1.,0.,0.));
#1212=DIRECTION('',(0.,0.,1.));
#1213=DIRECTION('center_axis',(-1.,0.,0.));
#1214=DIRECTION('ref_axis',(0.,-1.,0.));
#1215=DIRECTION('',(0.,-1.,0.));
#1216=DIRECTION('center_axis',(0.,0.,1.));
#1217=DIRECTION('ref_axis',(1.,0.,0.));
#1218=DIRECTION('center_axis',(0.,0.,1.));
#1219=DIRECTION('ref_axis',(-1.,0.,0.));
#1220=DIRECTION('',(-1.,0.,0.));
#1221=DIRECTION('',(-2.66453525910038E-17,1.,0.));
#1222=DIRECTION('',(1.,0.,0.));
#1223=DIRECTION('',(0.,-1.,0.));
#1224=DIRECTION('',(-1.,0.,0.));
#1225=DIRECTION('',(0.,-1.,0.));
#1226=DIRECTION('',(1.,0.,0.));
#1227=DIRECTION('',(0.,1.,0.));
#1228=DIRECTION('',(-1.,0.,0.));
#1229=DIRECTION('',(0.,-1.,0.));
#1230=DIRECTION('',(1.,0.,0.));
#1231=DIRECTION('',(0.,1.,0.));
#1232=DIRECTION('',(-1.,0.,0.));
#1233=DIRECTION('',(0.,-1.,0.));
#1234=DIRECTION('',(1.,0.,0.));
#1235=DIRECTION('',(0.,1.,0.));
#1236=DIRECTION('',(-1.,0.,0.));
#1237=DIRECTION('',(0.,-1.,0.));
#1238=DIRECTION('',(1.,0.,0.));
#1239=DIRECTION('',(0.,1.,0.));
#1240=DIRECTION('center_axis',(0.,0.,-1.));
#1241=DIRECTION('ref_axis',(-1.,0.,0.));
#1242=DIRECTION('',(1.,0.,0.));
#1243=DIRECTION('',(0.,1.,0.));
#1244=DIRECTION('',(1.,0.,0.));
#1245=DIRECTION('',(0.,-1.,0.));
#1246=DIRECTION('center_axis',(1.,0.,0.));
#1247=DIRECTION('ref_axis',(0.,0.,-1.));
#1248=DIRECTION('',(0.,0.,1.));
#1249=DIRECTION('',(0.,-1.,0.));
#1250=DIRECTION('',(0.,0.,1.));
#1251=DIRECTION('center_axis',(1.,0.,0.));
#1252=DIRECTION('ref_axis',(0.,0.,-1.));
#1253=DIRECTION('',(0.,0.,1.));
#1254=DIRECTION('',(0.,-1.,0.));
#1255=DIRECTION('',(0.,0.,-1.));
#1256=DIRECTION('center_axis',(0.,1.,0.));
#1257=DIRECTION('ref_axis',(1.,0.,0.));
#1258=DIRECTION('',(1.,0.,0.));
#1259=DIRECTION('',(0.,0.,-1.));
#1260=DIRECTION('center_axis',(-1.,0.,0.));
#1261=DIRECTION('ref_axis',(0.,1.,0.));
#1262=DIRECTION('',(0.,1.,0.));
#1263=DIRECTION('',(0.,0.,-1.));
#1264=DIRECTION('center_axis',(0.,-1.,0.));
#1265=DIRECTION('ref_axis',(-1.,0.,0.));
#1266=DIRECTION('',(1.,0.,0.));
#1267=DIRECTION('center_axis',(0.,0.,1.));
#1268=DIRECTION('ref_axis',(-1.,0.,0.));
#1269=DIRECTION('center_axis',(0.,0.,-1.));
#1270=DIRECTION('ref_axis',(-1.,0.,0.));
#1271=DIRECTION('',(0.,0.,-1.));
#1272=DIRECTION('center_axis',(-1.,0.,0.));
#1273=DIRECTION('ref_axis',(0.,-1.,0.));
#1274=DIRECTION('',(0.,0.,1.));
#1275=DIRECTION('',(0.,-1.,0.));
#1276=DIRECTION('',(0.,0.,1.));
#1277=DIRECTION('center_axis',(0.,-1.,0.));
#1278=DIRECTION('ref_axis',(1.,0.,0.));
#1279=DIRECTION('',(1.,0.,0.));
#1280=DIRECTION('',(0.,0.,1.));
#1281=DIRECTION('center_axis',(1.,0.,0.));
#1282=DIRECTION('ref_axis',(0.,1.,0.));
#1283=DIRECTION('',(0.,1.,0.));
#1284=DIRECTION('',(0.,0.,1.));
#1285=DIRECTION('center_axis',(0.,1.,0.));
#1286=DIRECTION('ref_axis',(-1.,0.,0.));
#1287=DIRECTION('',(-1.,0.,0.));
#1288=DIRECTION('center_axis',(-1.,0.,0.));
#1289=DIRECTION('ref_axis',(0.,-1.,0.));
#1290=DIRECTION('',(0.,0.,1.));
#1291=DIRECTION('',(0.,-1.,0.));
#1292=DIRECTION('',(0.,0.,1.));
#1293=DIRECTION('center_axis',(0.,-1.,0.));
#1294=DIRECTION('ref_axis',(1.,0.,0.));
#1295=DIRECTION('',(1.,0.,0.));
#1296=DIRECTION('',(0.,0.,1.));
#1297=DIRECTION('center_axis',(1.,0.,0.));
#1298=DIRECTION('ref_axis',(0.,1.,0.));
#1299=DIRECTION('',(0.,1.,0.));
#1300=DIRECTION('',(0.,0.,1.));
#1301=DIRECTION('center_axis',(0.,1.,0.));
#1302=DIRECTION('ref_axis',(-1.,0.,0.));
#1303=DIRECTION('',(-1.,0.,0.));
#1304=DIRECTION('center_axis',(-1.,0.,0.));
#1305=DIRECTION('ref_axis',(0.,-1.,0.));
#1306=DIRECTION('',(0.,0.,1.));
#1307=DIRECTION('',(0.,-1.,0.));
#1308=DIRECTION('',(0.,0.,1.));
#1309=DIRECTION('center_axis',(0.,-1.,0.));
#1310=DIRECTION('ref_axis',(1.,0.,0.));
#1311=DIRECTION('',(1.,0.,0.));
#1312=DIRECTION('',(0.,0.,1.));
#1313=DIRECTION('center_axis',(1.,0.,0.));
#1314=DIRECTION('ref_axis',(0.,1.,0.));
#1315=DIRECTION('',(0.,1.,0.));
#1316=DIRECTION('',(0.,0.,1.));
#1317=DIRECTION('center_axis',(0.,1.,0.));
#1318=DIRECTION('ref_axis',(-1.,0.,0.));
#1319=DIRECTION('',(-1.,0.,0.));
#1320=DIRECTION('center_axis',(-1.,0.,0.));
#1321=DIRECTION('ref_axis',(0.,-1.,0.));
#1322=DIRECTION('',(0.,0.,1.));
#1323=DIRECTION('',(0.,-1.,0.));
#1324=DIRECTION('',(0.,0.,1.));
#1325=DIRECTION('center_axis',(0.,-1.,0.));
#1326=DIRECTION('ref_axis',(1.,0.,0.));
#1327=DIRECTION('',(1.,0.,0.));
#1328=DIRECTION('',(0.,0.,1.));
#1329=DIRECTION('center_axis',(1.,0.,0.));
#1330=DIRECTION('ref_axis',(0.,1.,0.));
#1331=DIRECTION('',(0.,1.,0.));
#1332=DIRECTION('',(0.,0.,1.));
#1333=DIRECTION('center_axis',(0.,1.,0.));
#1334=DIRECTION('ref_axis',(-1.,0.,0.));
#1335=DIRECTION('',(-1.,0.,0.));
#1336=DIRECTION('center_axis',(0.,1.,0.));
#1337=DIRECTION('ref_axis',(-1.,0.,0.));
#1338=DIRECTION('',(0.,0.,1.));
#1339=DIRECTION('',(1.,0.,0.));
#1340=DIRECTION('center_axis',(0.,-1.,0.));
#1341=DIRECTION('ref_axis',(1.,0.,0.));
#1342=DIRECTION('',(1.,0.,0.));
#1343=DIRECTION('',(0.,0.,1.));
#1344=DIRECTION('center_axis',(-1.,-2.66453525910038E-17,0.));
#1345=DIRECTION('ref_axis',(2.66453525910038E-17,-1.,0.));
#1346=DIRECTION('',(2.66453525910038E-17,-1.,0.));
#1347=DIRECTION('center_axis',(0.,0.,1.));
#1348=DIRECTION('ref_axis',(-1.,0.,0.));
#1349=CARTESIAN_POINT('',(0.,0.,0.));
#1350=CARTESIAN_POINT('Origin',(48.,36.,15.));
#1351=CARTESIAN_POINT('',(0.,72.,15.));
#1352=CARTESIAN_POINT('',(0.,0.,15.));
#1353=CARTESIAN_POINT('',(0.,72.,15.));
#1354=CARTESIAN_POINT('',(107.4,0.,15.));
#1355=CARTESIAN_POINT('',(0.,0.,15.));
#1356=CARTESIAN_POINT('',(107.4,72.,15.));
#1357=CARTESIAN_POINT('',(107.4,0.,15.));
#1358=CARTESIAN_POINT('',(96.,72.,15.));
#1359=CARTESIAN_POINT('',(106.85,2.,15.));
#1360=CARTESIAN_POINT('Origin',(105.4,2.,15.));
#1361=CARTESIAN_POINT('',(3.45,70.,15.));
#1362=CARTESIAN_POINT('Origin',(2.,70.,15.));
#1363=CARTESIAN_POINT('',(3.45,2.,15.));
#1364=CARTESIAN_POINT('Origin',(2.,2.,15.));
#1365=CARTESIAN_POINT('',(103.9,68.75,15.));
#1366=CARTESIAN_POINT('',(103.9,3.25,15.));
#1367=CARTESIAN_POINT('',(103.9,52.375,15.));
#1368=CARTESIAN_POINT('',(3.5,3.25,15.));
#1369=CARTESIAN_POINT('',(70.25,3.25,15.));
#1370=CARTESIAN_POINT('',(3.5,68.75,15.));
#1371=CARTESIAN_POINT('',(3.5,19.625,15.));
#1372=CARTESIAN_POINT('',(70.25,68.75,15.));
#1373=CARTESIAN_POINT('',(106.85,70.,15.));
#1374=CARTESIAN_POINT('Origin',(105.4,70.,15.));
#1375=CARTESIAN_POINT('Origin',(102.4,67.25,12.));
#1376=CARTESIAN_POINT('',(102.4,67.25,12.));
#1377=CARTESIAN_POINT('',(102.4,4.75000000000001,12.));
#1378=CARTESIAN_POINT('',(102.4,51.625,12.));
#1379=CARTESIAN_POINT('',(102.4,67.25,3.));
#1380=CARTESIAN_POINT('',(102.4,67.25,12.));
#1381=CARTESIAN_POINT('',(102.4,4.75000000000001,3.));
#1382=CARTESIAN_POINT('',(102.4,67.25,3.));
#1383=CARTESIAN_POINT('',(102.4,4.75000000000001,12.));
#1384=CARTESIAN_POINT('Origin',(103.9,68.75,15.));
#1385=CARTESIAN_POINT('',(103.9,68.75,12.));
#1386=CARTESIAN_POINT('',(103.9,68.75,15.));
#1387=CARTESIAN_POINT('',(103.9,3.25,12.));
#1388=CARTESIAN_POINT('',(103.9,68.75,12.));
#1389=CARTESIAN_POINT('',(103.9,3.25,15.));
#1390=CARTESIAN_POINT('Origin',(105.4,70.,15.));
#1391=CARTESIAN_POINT('',(106.85,70.,0.));
#1392=CARTESIAN_POINT('',(106.85,70.,15.));
#1393=CARTESIAN_POINT('Origin',(105.4,70.,0.));
#1394=CARTESIAN_POINT('Origin',(107.4,0.,0.));
#1395=CARTESIAN_POINT('',(107.4,0.,0.));
#1396=CARTESIAN_POINT('',(107.4,72.,0.));
#1397=CARTESIAN_POINT('',(107.4,0.,0.));
#1398=CARTESIAN_POINT('',(107.4,72.,0.));
#1399=CARTESIAN_POINT('',(107.4,0.,0.));
#1400=CARTESIAN_POINT('Origin',(105.4,2.,15.));
#1401=CARTESIAN_POINT('',(106.85,2.,0.));
#1402=CARTESIAN_POINT('',(106.85,2.,15.));
#1403=CARTESIAN_POINT('Origin',(105.4,2.,0.));
#1404=CARTESIAN_POINT('Origin',(2.,70.,15.));
#1405=CARTESIAN_POINT('',(3.45,70.,0.));
#1406=CARTESIAN_POINT('',(3.45,70.,15.));
#1407=CARTESIAN_POINT('Origin',(2.,70.,0.));
#1408=CARTESIAN_POINT('Origin',(2.,2.,15.));
#1409=CARTESIAN_POINT('',(3.45,2.,0.));
#1410=CARTESIAN_POINT('',(3.45,2.,15.));
#1411=CARTESIAN_POINT('Origin',(2.,2.,0.));
#1412=CARTESIAN_POINT('Origin',(0.,42.,4.));
#1413=CARTESIAN_POINT('',(5.,42.,11.));
#1414=CARTESIAN_POINT('',(5.,42.,4.));
#1415=CARTESIAN_POINT('',(5.,42.,8.));
#1416=CARTESIAN_POINT('',(0.,42.,11.));
#1417=CARTESIAN_POINT('',(0.,42.,11.));
#1418=CARTESIAN_POINT('',(0.,42.,4.));
#1419=CARTESIAN_POINT('',(0.,42.,2.));
#1420=CARTESIAN_POINT('',(0.,42.,4.));
#1421=CARTESIAN_POINT('Origin',(0.,30.,4.));
#1422=CARTESIAN_POINT('',(5.,30.,4.));
#1423=CARTESIAN_POINT('',(5.,17.375,4.));
#1424=CARTESIAN_POINT('',(0.,30.,4.));
#1425=CARTESIAN_POINT('',(0.,51.,4.));
#1426=CARTESIAN_POINT('',(0.,30.,4.));
#1427=CARTESIAN_POINT('Origin',(0.,30.,11.));
#1428=CARTESIAN_POINT('',(5.,30.,11.));
#1429=CARTESIAN_POINT('',(5.,30.,11.5));
#1430=CARTESIAN_POINT('',(0.,30.,11.));
#1431=CARTESIAN_POINT('',(0.,30.,5.5));
#1432=CARTESIAN_POINT('',(0.,30.,11.));
#1433=CARTESIAN_POINT('Origin',(0.,42.,11.));
#1434=CARTESIAN_POINT('',(5.,23.375,11.));
#1435=CARTESIAN_POINT('',(0.,57.,11.));
#1436=CARTESIAN_POINT('Origin',(5.,67.25,12.));
#1437=CARTESIAN_POINT('',(5.,67.25,12.));
#1438=CARTESIAN_POINT('',(69.5,67.25,12.));
#1439=CARTESIAN_POINT('',(5.,67.25,3.));
#1440=CARTESIAN_POINT('',(5.,67.25,12.));
#1441=CARTESIAN_POINT('',(91.,67.25,3.));
#1442=CARTESIAN_POINT('Origin',(5.,4.75000000000001,12.));
#1443=CARTESIAN_POINT('',(5.,4.75000000000001,12.));
#1444=CARTESIAN_POINT('',(5.,20.375,12.));
#1445=CARTESIAN_POINT('',(5.,4.75000000000001,3.));
#1446=CARTESIAN_POINT('',(5.,4.75000000000001,12.));
#1447=CARTESIAN_POINT('',(5.,4.75000000000001,3.));
#1448=CARTESIAN_POINT('Origin',(91.,4.75000000000001,12.));
#1449=CARTESIAN_POINT('',(69.5,4.75000000000001,12.));
#1450=CARTESIAN_POINT('',(91.,4.75000000000001,3.));
#1451=CARTESIAN_POINT('Origin',(48.,36.,3.));
#1452=CARTESIAN_POINT('Origin',(3.5,3.25,15.));
#1453=CARTESIAN_POINT('',(3.5,3.25,12.));
#1454=CARTESIAN_POINT('',(3.5,3.25,15.));
#1455=CARTESIAN_POINT('',(3.5,68.75,12.));
#1456=CARTESIAN_POINT('',(3.5,3.25,12.));
#1457=CARTESIAN_POINT('',(3.5,68.75,15.));
#1458=CARTESIAN_POINT('Origin',(92.5,3.25,15.));
#1459=CARTESIAN_POINT('',(92.5,3.25,12.));
#1460=CARTESIAN_POINT('Origin',(3.5,68.75,15.));
#1461=CARTESIAN_POINT('',(92.5,68.75,12.));
#1462=CARTESIAN_POINT('Origin',(48.,36.,12.));
#1463=CARTESIAN_POINT('Origin',(96.,72.,0.));
#1464=CARTESIAN_POINT('',(0.,72.,0.));
#1465=CARTESIAN_POINT('',(96.,72.,0.));
#1466=CARTESIAN_POINT('',(0.,72.,0.));
#1467=CARTESIAN_POINT('Origin',(0.,0.,0.));
#1468=CARTESIAN_POINT('',(0.,0.,0.));
#1469=CARTESIAN_POINT('',(0.,0.,0.));
#1470=CARTESIAN_POINT('',(0.,0.,0.));
#1471=CARTESIAN_POINT('Origin',(0.,72.,0.));
#1472=CARTESIAN_POINT('',(0.,72.,0.));
#1473=CARTESIAN_POINT('Origin',(48.,36.,0.));
#1474=CARTESIAN_POINT('Origin',(48.,36.,12.));
#1475=CARTESIAN_POINT('',(102.4,4.75000000000001,12.));
#1476=CARTESIAN_POINT('',(5.,4.75000000000001,12.));
#1477=CARTESIAN_POINT('',(91.,4.75000000000001,12.));
#1478=CARTESIAN_POINT('',(5.,67.25,12.));
#1479=CARTESIAN_POINT('',(5.,4.75000000000001,12.));
#1480=CARTESIAN_POINT('',(102.4,67.25,12.));
#1481=CARTESIAN_POINT('',(91.,67.25,12.));
#1482=CARTESIAN_POINT('',(102.4,52.2,12.));
#1483=CARTESIAN_POINT('',(51.0000005662441,48.05,12.));
#1484=CARTESIAN_POINT('',(37.0000005662441,48.05,12.));
#1485=CARTESIAN_POINT('',(51.0000005662441,48.05,12.));
#1486=CARTESIAN_POINT('',(51.0000005662441,62.05,12.));
#1487=CARTESIAN_POINT('',(51.0000005662441,62.05,12.));
#1488=CARTESIAN_POINT('',(37.0000005662441,62.05,12.));
#1489=CARTESIAN_POINT('',(37.0000005662441,62.05,12.));
#1490=CARTESIAN_POINT('',(37.0000005662441,48.05,12.));
#1491=CARTESIAN_POINT('',(70.05,29.,12.));
#1492=CARTESIAN_POINT('',(56.05,29.,12.));
#1493=CARTESIAN_POINT('',(70.05,29.,12.));
#1494=CARTESIAN_POINT('',(70.05,43.,12.));
#1495=CARTESIAN_POINT('',(70.05,43.,12.));
#1496=CARTESIAN_POINT('',(56.05,43.,12.));
#1497=CARTESIAN_POINT('',(56.05,43.,12.));
#1498=CARTESIAN_POINT('',(56.05,29.,12.));
#1499=CARTESIAN_POINT('',(51.,29.,12.));
#1500=CARTESIAN_POINT('',(37.,29.,12.));
#1501=CARTESIAN_POINT('',(51.,29.,12.));
#1502=CARTESIAN_POINT('',(51.,43.,12.));
#1503=CARTESIAN_POINT('',(51.,43.,12.));
#1504=CARTESIAN_POINT('',(37.,43.,12.));
#1505=CARTESIAN_POINT('',(37.,43.,12.));
#1506=CARTESIAN_POINT('',(37.,29.,12.));
#1507=CARTESIAN_POINT('',(51.000000551343,9.95,12.));
#1508=CARTESIAN_POINT('',(37.000000551343,9.95,12.));
#1509=CARTESIAN_POINT('',(51.000000551343,9.95,12.));
#1510=CARTESIAN_POINT('',(51.000000551343,23.95,12.));
#1511=CARTESIAN_POINT('',(51.000000551343,23.95,12.));
#1512=CARTESIAN_POINT('',(37.000000551343,23.95,12.));
#1513=CARTESIAN_POINT('',(37.000000551343,23.95,12.));
#1514=CARTESIAN_POINT('',(37.000000551343,9.95,12.));
#1515=CARTESIAN_POINT('',(85.675,36.,12.));
#1516=CARTESIAN_POINT('Origin',(82.075,36.,12.));
#1517=CARTESIAN_POINT('',(88.000001296401,19.8,12.));
#1518=CARTESIAN_POINT('',(100.631,19.8,12.));
#1519=CARTESIAN_POINT('',(91.,19.8,12.));
#1520=CARTESIAN_POINT('',(100.631,52.2,12.));
#1521=CARTESIAN_POINT('',(100.631,52.2,12.));
#1522=CARTESIAN_POINT('',(88.000001296401,52.2,12.));
#1523=CARTESIAN_POINT('',(91.,52.2,12.));
#1524=CARTESIAN_POINT('',(88.000001296401,27.9,12.));
#1525=CARTESIAN_POINT('Origin',(100.631,52.2,13.5));
#1526=CARTESIAN_POINT('',(100.631,19.8,13.5));
#1527=CARTESIAN_POINT('',(100.631,19.8,12.75));
#1528=CARTESIAN_POINT('',(100.631,52.2,13.5));
#1529=CARTESIAN_POINT('',(100.631,52.2,13.5));
#1530=CARTESIAN_POINT('',(100.631,52.2,13.5));
#1531=CARTESIAN_POINT('Origin',(102.4,4.75000000000001,12.));
#1532=CARTESIAN_POINT('',(102.4,67.25,13.5));
#1533=CARTESIAN_POINT('',(102.4,67.25,12.));
#1534=CARTESIAN_POINT('',(102.4,4.75000000000001,13.5));
#1535=CARTESIAN_POINT('',(102.4,67.25,13.5));
#1536=CARTESIAN_POINT('',(102.4,4.75000000000001,12.));
#1537=CARTESIAN_POINT('Origin',(88.000001296401,52.2,13.5));
#1538=CARTESIAN_POINT('',(88.000001296401,52.2,13.5));
#1539=CARTESIAN_POINT('',(91.,52.2,13.5));
#1540=CARTESIAN_POINT('',(88.000001296401,52.2,13.5));
#1541=CARTESIAN_POINT('Origin',(88.000001296401,19.8,13.5));
#1542=CARTESIAN_POINT('',(88.000001296401,19.8,13.5));
#1543=CARTESIAN_POINT('',(88.000001296401,27.9,13.5));
#1544=CARTESIAN_POINT('',(88.000001296401,19.8,13.5));
#1545=CARTESIAN_POINT('Origin',(100.630708226901,19.8,13.5));
#1546=CARTESIAN_POINT('',(91.,19.8,13.5));
#1547=CARTESIAN_POINT('Origin',(82.075,36.,12.));
#1548=CARTESIAN_POINT('',(85.675,36.,13.5));
#1549=CARTESIAN_POINT('Origin',(82.075,36.,13.5));
#1550=CARTESIAN_POINT('',(85.675,36.,12.));
#1551=CARTESIAN_POINT('Origin',(51.000000551343,23.95,12.));
#1552=CARTESIAN_POINT('',(51.000000551343,9.95,13.5));
#1553=CARTESIAN_POINT('',(51.000000551343,9.95,12.));
#1554=CARTESIAN_POINT('',(51.000000551343,23.95,13.5));
#1555=CARTESIAN_POINT('',(51.000000551343,23.95,13.5));
#1556=CARTESIAN_POINT('',(51.000000551343,23.95,12.));
#1557=CARTESIAN_POINT('Origin',(37.000000551343,23.95,12.));
#1558=CARTESIAN_POINT('',(37.000000551343,23.95,13.5));
#1559=CARTESIAN_POINT('',(37.000000551343,23.95,13.5));
#1560=CARTESIAN_POINT('',(37.000000551343,23.95,12.));
#1561=CARTESIAN_POINT('Origin',(37.000000551343,9.95,12.));
#1562=CARTESIAN_POINT('',(37.000000551343,9.95,13.5));
#1563=CARTESIAN_POINT('',(37.000000551343,9.95,13.5));
#1564=CARTESIAN_POINT('',(37.000000551343,9.95,12.));
#1565=CARTESIAN_POINT('Origin',(51.000000551343,9.95,12.));
#1566=CARTESIAN_POINT('',(51.000000551343,9.95,13.5));
#1567=CARTESIAN_POINT('Origin',(51.,43.,12.));
#1568=CARTESIAN_POINT('',(51.,29.,13.5));
#1569=CARTESIAN_POINT('',(51.,29.,12.));
#1570=CARTESIAN_POINT('',(51.,43.,13.5));
#1571=CARTESIAN_POINT('',(51.,43.,13.5));
#1572=CARTESIAN_POINT('',(51.,43.,12.));
#1573=CARTESIAN_POINT('Origin',(37.,43.,12.));
#1574=CARTESIAN_POINT('',(37.,43.,13.5));
#1575=CARTESIAN_POINT('',(37.,43.,13.5));
#1576=CARTESIAN_POINT('',(37.,43.,12.));
#1577=CARTESIAN_POINT('Origin',(37.,29.,12.));
#1578=CARTESIAN_POINT('',(37.,29.,13.5));
#1579=CARTESIAN_POINT('',(37.,29.,13.5));
#1580=CARTESIAN_POINT('',(37.,29.,12.));
#1581=CARTESIAN_POINT('Origin',(51.,29.,12.));
#1582=CARTESIAN_POINT('',(51.,29.,13.5));
#1583=CARTESIAN_POINT('Origin',(70.05,43.,12.));
#1584=CARTESIAN_POINT('',(70.05,29.,13.5));
#1585=CARTESIAN_POINT('',(70.05,29.,12.));
#1586=CARTESIAN_POINT('',(70.05,43.,13.5));
#1587=CARTESIAN_POINT('',(70.05,43.,13.5));
#1588=CARTESIAN_POINT('',(70.05,43.,12.));
#1589=CARTESIAN_POINT('Origin',(56.05,43.,12.));
#1590=CARTESIAN_POINT('',(56.05,43.,13.5));
#1591=CARTESIAN_POINT('',(56.05,43.,13.5));
#1592=CARTESIAN_POINT('',(56.05,43.,12.));
#1593=CARTESIAN_POINT('Origin',(56.05,29.,12.));
#1594=CARTESIAN_POINT('',(56.05,29.,13.5));
#1595=CARTESIAN_POINT('',(56.05,29.,13.5));
#1596=CARTESIAN_POINT('',(56.05,29.,12.));
#1597=CARTESIAN_POINT('Origin',(70.05,29.,12.));
#1598=CARTESIAN_POINT('',(70.05,29.,13.5));
#1599=CARTESIAN_POINT('Origin',(51.0000005662441,62.05,12.));
#1600=CARTESIAN_POINT('',(51.0000005662441,48.05,13.5));
#1601=CARTESIAN_POINT('',(51.0000005662441,48.05,12.));
#1602=CARTESIAN_POINT('',(51.0000005662441,62.05,13.5));
#1603=CARTESIAN_POINT('',(51.0000005662441,62.05,13.5));
#1604=CARTESIAN_POINT('',(51.0000005662441,62.05,12.));
#1605=CARTESIAN_POINT('Origin',(37.0000005662441,62.05,12.));
#1606=CARTESIAN_POINT('',(37.0000005662441,62.05,13.5));
#1607=CARTESIAN_POINT('',(37.0000005662441,62.05,13.5));
#1608=CARTESIAN_POINT('',(37.0000005662441,62.05,12.));
#1609=CARTESIAN_POINT('Origin',(37.0000005662441,48.05,12.));
#1610=CARTESIAN_POINT('',(37.0000005662441,48.05,13.5));
#1611=CARTESIAN_POINT('',(37.0000005662441,48.05,13.5));
#1612=CARTESIAN_POINT('',(37.0000005662441,48.05,12.));
#1613=CARTESIAN_POINT('Origin',(51.0000005662441,48.05,12.));
#1614=CARTESIAN_POINT('',(51.0000005662441,48.05,13.5));
#1615=CARTESIAN_POINT('Origin',(91.,67.25,12.));
#1616=CARTESIAN_POINT('',(5.,67.25,13.5));
#1617=CARTESIAN_POINT('',(5.,67.25,12.));
#1618=CARTESIAN_POINT('',(91.,67.25,13.5));
#1619=CARTESIAN_POINT('Origin',(5.,4.75000000000001,12.));
#1620=CARTESIAN_POINT('',(5.,4.75000000000001,13.5));
#1621=CARTESIAN_POINT('',(91.,4.75000000000001,13.5));
#1622=CARTESIAN_POINT('',(5.,4.75000000000001,12.));
#1623=CARTESIAN_POINT('Origin',(5.,67.25,12.));
#1624=CARTESIAN_POINT('',(5.,4.75000000000001,13.5));
#1625=CARTESIAN_POINT('Origin',(48.,36.,13.5));
#1626=UNCERTAINTY_MEASURE_WITH_UNIT(LENGTH_MEASURE(0.01),#1630,
'DISTANCE_ACCURACY_VALUE',
'Maximum model space distance between geometric entities at asserted c
onnectivities');
#1627=UNCERTAINTY_MEASURE_WITH_UNIT(LENGTH_MEASURE(0.01),#1630,
'DISTANCE_ACCURACY_VALUE',
'Maximum model space distance between geometric entities at asserted c
onnectivities');
#1628=(
GEOMETRIC_REPRESENTATION_CONTEXT(3)
GLOBAL_UNCERTAINTY_ASSIGNED_CONTEXT((#1626))
GLOBAL_UNIT_ASSIGNED_CONTEXT((#1630,#1632,#1633))
REPRESENTATION_CONTEXT('','3D')
);
#1629=(
GEOMETRIC_REPRESENTATION_CONTEXT(3)
GLOBAL_UNCERTAINTY_ASSIGNED_CONTEXT((#1627))
GLOBAL_UNIT_ASSIGNED_CONTEXT((#1630,#1632,#1633))
REPRESENTATION_CONTEXT('','3D')
);
#1630=(
LENGTH_UNIT()
NAMED_UNIT(*)
SI_UNIT(.MILLI.,.METRE.)
);
#1631=(
LENGTH_UNIT()
NAMED_UNIT(*)
SI_UNIT($,.METRE.)
);
#1632=(
NAMED_UNIT(*)
PLANE_ANGLE_UNIT()
SI_UNIT($,.RADIAN.)
);
#1633=(
NAMED_UNIT(*)
SI_UNIT($,.STERADIAN.)
SOLID_ANGLE_UNIT()
);
#1634=SHAPE_DEFINITION_REPRESENTATION(#1635,#1636);
#1635=PRODUCT_DEFINITION_SHAPE('',$,#1638);
#1636=SHAPE_REPRESENTATION('',(#1038),#1628);
#1637=PRODUCT_DEFINITION_CONTEXT('part definition',#1642,'design');
#1638=PRODUCT_DEFINITION('2026-09-05-20-46-46-792','Hackpad',#1639,#1637);
#1639=PRODUCT_DEFINITION_FORMATION('',$,#1644);
#1640=PRODUCT_RELATED_PRODUCT_CATEGORY('Hackpad','Hackpad',(#1644));
#1641=APPLICATION_PROTOCOL_DEFINITION('international standard',
'automotive_design',2009,#1642);
#1642=APPLICATION_CONTEXT(
'Core Data for Automotive Mechanical Design Process');
#1643=PRODUCT_CONTEXT('part definition',#1642,'mechanical');
#1644=PRODUCT('2026-09-05-20-46-46-792','Hackpad',$,(#1643));
#1645=PRESENTATION_STYLE_ASSIGNMENT((#1646));
#1646=SURFACE_STYLE_USAGE(.BOTH.,#1647);
#1647=SURFACE_SIDE_STYLE('',(#1648));
#1648=SURFACE_STYLE_FILL_AREA(#1649);
#1649=FILL_AREA_STYLE('FR4',(#1650));
#1650=FILL_AREA_STYLE_COLOUR('FR4',#1651);
#1651=COLOUR_RGB('FR4',0.266666666666667,0.466666666666667,0.4);
ENDSEC;
END-ISO-10303-21;
